<svg xmlns="http://www.w3.org/2000/svg" xmlns:xlink="http://www.w3.org/1999/xlink" width="234.862" height="184.483" viewBox="0 0 234.862 184.483">
  <defs>
    <clipPath id="clip-path">
      <rect id="Rectangle_7" data-name="Rectangle 7" width="234.862" height="184.483" fill="#fc8800"/>
    </clipPath>
  </defs>
  <g id="Group_5" data-name="Group 5" transform="translate(0 0)">
    <g id="Group_4" data-name="Group 4" transform="translate(0 0)" clip-path="url(#clip-path)">
      <path id="Path_1" data-name="Path 1" d="M33.339,60.971,20.152,36.858H15.147V60.971H.816V.216H23.985a40.238,40.238,0,0,1,8.538.9,22.2,22.2,0,0,1,7.466,3.046,15.933,15.933,0,0,1,5.277,5.664,17.687,17.687,0,0,1,1.974,8.753,16.149,16.149,0,0,1-3.347,10.383,18.253,18.253,0,0,1-9.268,6.007l15.875,26Zm-.6-42.134a6.085,6.085,0,0,0-.9-3.475,6.215,6.215,0,0,0-2.331-2.06,10.151,10.151,0,0,0-3.189-.987,23.705,23.705,0,0,0-3.411-.257H15.061V26.217h6.987a23.578,23.578,0,0,0,3.7-.3,11.9,11.9,0,0,0,3.454-1.073,6.241,6.241,0,0,0,3.533-6.007" transform="translate(5.019 1.327)" fill="#666"/>
      <path id="Path_2" data-name="Path 2" d="M9.252,60.971V.216H50.1V12.573H23.411v11.5H48.64V35.828H23.411V48.443H51.643V60.971Z" transform="translate(56.91 1.326)" fill="#666"/>
      <path id="Path_3" data-name="Path 3" d="M53.631,17.334A13.3,13.3,0,0,0,48.7,13.515,13.951,13.951,0,0,0,42.812,12.1a17.48,17.48,0,0,0-2.953.257,7.732,7.732,0,0,0-2.71.987,6.658,6.658,0,0,0-2.009,1.888,5.027,5.027,0,0,0-.815,2.961,4.774,4.774,0,0,0,.644,2.574,5.772,5.772,0,0,0,1.881,1.8,17.075,17.075,0,0,0,2.961,1.416c1.151.429,2.431.872,3.862,1.33,2.067.687,4.2,1.445,6.443,2.274a24.025,24.025,0,0,1,6.086,3.3A17.366,17.366,0,0,1,60.754,36a14.7,14.7,0,0,1,1.8,7.594,19.84,19.84,0,0,1-1.931,9.053,18.054,18.054,0,0,1-5.192,6.307,22.313,22.313,0,0,1-7.466,3.69,31.468,31.468,0,0,1-8.667,1.2,35.788,35.788,0,0,1-12.614-2.274A26.726,26.726,0,0,1,16.56,55.092l9.611-9.783A17.8,17.8,0,0,0,32.042,49.9,15.982,15.982,0,0,0,39.3,51.745a14.528,14.528,0,0,0,3.168-.343,7.8,7.8,0,0,0,2.7-1.116,5.542,5.542,0,0,0,1.852-2.06,6.483,6.483,0,0,0,.686-3.089,4.888,4.888,0,0,0-.858-2.918,8.476,8.476,0,0,0-2.446-2.188,19.7,19.7,0,0,0-3.947-1.8q-2.371-.815-5.363-1.759a50.716,50.716,0,0,1-5.707-2.231,19.1,19.1,0,0,1-4.977-3.3,15.3,15.3,0,0,1-3.518-4.891,16.581,16.581,0,0,1-1.33-6.994,17.2,17.2,0,0,1,2.06-8.667,17.9,17.9,0,0,1,5.406-5.921,23.156,23.156,0,0,1,7.552-3.39A34.225,34.225,0,0,1,43.069,0,31.549,31.549,0,0,1,53.588,1.888a27.131,27.131,0,0,1,9.4,5.578Z" transform="translate(101.861 -0.002)" fill="#666"/>
      <path id="Path_4" data-name="Path 4" d="M75.226,48.057a21.916,21.916,0,0,1-5.277,7.723,24.406,24.406,0,0,1-8.281,5.02A30.768,30.768,0,0,1,50.9,62.6a30.56,30.56,0,0,1-10.812-1.8,23.586,23.586,0,0,1-8.159-5.02,21.873,21.873,0,0,1-5.142-7.723,26.7,26.7,0,0,1-1.8-10V.216H39.571V36.858a16.912,16.912,0,0,0,.644,4.72,12.117,12.117,0,0,0,1.974,3.99,9.256,9.256,0,0,0,3.518,2.789,12.261,12.261,0,0,0,5.27,1.03,12.35,12.35,0,0,0,5.285-1.03,9.63,9.63,0,0,0,3.561-2.789,11.22,11.22,0,0,0,1.974-3.99,18.044,18.044,0,0,0,.6-4.72V.216H77.071V38.059a26.146,26.146,0,0,1-1.845,10" transform="translate(153.672 1.327)" fill="#666"/>
      <path id="Path_5" data-name="Path 5" d="M31.837,23.556V71.783H17.163V23.556H0V11.027H49V23.556Z" transform="translate(0.001 67.827)" fill="#666"/>
      <path id="Path_6" data-name="Path 6" d="M73.314,42.55a33.881,33.881,0,0,1-2.489,13.172,29.992,29.992,0,0,1-6.908,10.212A30.735,30.735,0,0,1,53.405,72.5,36.876,36.876,0,0,1,40.19,74.815,36.53,36.53,0,0,1,27.018,72.5a30.822,30.822,0,0,1-10.469-6.565A29.992,29.992,0,0,1,9.641,55.722,33.881,33.881,0,0,1,7.152,42.55,33.477,33.477,0,0,1,9.641,29.377a28.841,28.841,0,0,1,6.908-10,30.776,30.776,0,0,1,10.469-6.35A37.787,37.787,0,0,1,40.19,10.8,38.146,38.146,0,0,1,53.405,13.03a30.7,30.7,0,0,1,10.512,6.35,28.841,28.841,0,0,1,6.908,10A33.477,33.477,0,0,1,73.314,42.55m-15.7,0a20.847,20.847,0,0,0-1.287-7.38,17.585,17.585,0,0,0-3.561-5.878,16.439,16.439,0,0,0-5.492-3.862,17.386,17.386,0,0,0-7.08-1.416,16.888,16.888,0,0,0-12.529,5.277A16.7,16.7,0,0,0,24.1,35.17a22.778,22.778,0,0,0,.043,14.974A17.987,17.987,0,0,0,27.7,56.108a16.26,16.26,0,0,0,5.449,3.9,17.086,17.086,0,0,0,7.037,1.416,17.086,17.086,0,0,0,7.037-1.416,16.725,16.725,0,0,0,5.492-3.9,17.611,17.611,0,0,0,3.6-5.964A21.706,21.706,0,0,0,57.61,42.55" transform="translate(43.992 66.423)" fill="#666"/>
      <path id="Path_7" data-name="Path 7" d="M83.278,42.55A33.879,33.879,0,0,1,80.8,55.722a30.111,30.111,0,0,1-6.915,10.212,30.772,30.772,0,0,1-10.5,6.565,36.927,36.927,0,0,1-13.229,2.317A36.491,36.491,0,0,1,36.982,72.5,30.86,30.86,0,0,1,26.52,65.934a29.89,29.89,0,0,1-6.908-10.212A33.881,33.881,0,0,1,17.124,42.55a33.477,33.477,0,0,1,2.489-13.172,28.745,28.745,0,0,1,6.908-10,30.812,30.812,0,0,1,10.462-6.35A37.747,37.747,0,0,1,50.148,10.8,38.2,38.2,0,0,1,63.377,13.03a30.731,30.731,0,0,1,10.5,6.35,28.955,28.955,0,0,1,6.915,10A33.476,33.476,0,0,1,83.278,42.55m-15.7,0a21.009,21.009,0,0,0-1.287-7.38,17.821,17.821,0,0,0-3.561-5.878,16.469,16.469,0,0,0-5.5-3.862,17.348,17.348,0,0,0-7.087-1.416A16.675,16.675,0,0,0,34.065,35.17a22.718,22.718,0,0,0,.05,14.974,17.957,17.957,0,0,0,3.547,5.964,16.317,16.317,0,0,0,5.463,3.9,18.175,18.175,0,0,0,14.066,0,16.476,16.476,0,0,0,5.485-3.9,17.641,17.641,0,0,0,3.618-5.964,21.872,21.872,0,0,0,1.287-7.594" transform="translate(105.331 66.423)" fill="#666"/>
      <path id="Path_8" data-name="Path 8" d="M27.492,71.783V11.027h14.76V59H65.764V71.783Z" transform="translate(169.103 67.828)" fill="#666"/>
      <path id="Path_9" data-name="Path 9" d="M7.592,31.312H5.081v9.053H2.943V31.312H.8V29.553H2.943V27.3a6.871,6.871,0,0,1,.215-1.766,3.559,3.559,0,0,1,.708-1.4A3.247,3.247,0,0,1,5.117,23.2a4.544,4.544,0,0,1,1.859-.343,4.992,4.992,0,0,1,1.344.157l-.25,1.852a3.908,3.908,0,0,0-.5-.114A3.339,3.339,0,0,0,7,24.7a1.961,1.961,0,0,0-.987.215,1.59,1.59,0,0,0-.586.586,2.517,2.517,0,0,0-.272.83,7.152,7.152,0,0,0-.072.973v2.253h2.51Z" transform="translate(4.909 140.562)" fill="#666"/>
      <path id="Path_10" data-name="Path 10" d="M13.64,29.433a5.739,5.739,0,0,1-.443,2.3,5.443,5.443,0,0,1-1.23,1.816,5.52,5.52,0,0,1-1.859,1.187,6.274,6.274,0,0,1-2.3.422,6.274,6.274,0,0,1-2.3-.422,5.389,5.389,0,0,1-1.845-1.187,5.532,5.532,0,0,1-1.223-1.816,5.864,5.864,0,0,1-.443-2.3,5.789,5.789,0,0,1,.443-2.3A5.41,5.41,0,0,1,3.657,25.35,5.48,5.48,0,0,1,5.5,24.17a6.274,6.274,0,0,1,2.3-.422,6.274,6.274,0,0,1,2.3.422,5.615,5.615,0,0,1,1.859,1.18,5.323,5.323,0,0,1,1.23,1.788,5.666,5.666,0,0,1,.443,2.3m-2.231.007a4.463,4.463,0,0,0-.243-1.48,3.689,3.689,0,0,0-.694-1.237,3.3,3.3,0,0,0-1.137-.851A3.519,3.519,0,0,0,7.8,25.55a3.583,3.583,0,0,0-1.552.322,3.344,3.344,0,0,0-1.13.851,3.97,3.97,0,0,0-.7,1.237,4.761,4.761,0,0,0,0,2.961,4.006,4.006,0,0,0,.7,1.244,3.206,3.206,0,0,0,1.13.865,3.583,3.583,0,0,0,1.552.322,3.519,3.519,0,0,0,1.537-.322,3.169,3.169,0,0,0,1.137-.865,3.722,3.722,0,0,0,.694-1.244,4.463,4.463,0,0,0,.243-1.48" transform="translate(12.247 146.073)" fill="#666"/>
      <path id="Path_11" data-name="Path 11" d="M4.022,25.25c-.014-.451-.036-.858-.064-1.209H5.982c.036.279.057.594.072.944s.021.651.021.88h.072a3.7,3.7,0,0,1,1.33-1.537,3.51,3.51,0,0,1,1.974-.579,3.163,3.163,0,0,1,.844.093L10.2,25.822a3.858,3.858,0,0,0-.973-.114,2.944,2.944,0,0,0-1.352.286,2.733,2.733,0,0,0-.944.758,3.3,3.3,0,0,0-.558,1.108,4.718,4.718,0,0,0-.186,1.316v5.678H4.044V26.365q0-.429-.021-1.116" transform="translate(24.346 146.073)" fill="#666"/>
      <path id="Path_12" data-name="Path 12" d="M10.88,25.253c-2.873,0-3.859.056-4.049.056-.324,0-.359-.028-.359-.38V22.344c0-.352.035-.38.359-.38.19,0,1.176.063,4.049.063H30.092c2.873,0,3.831-.063,4.056-.063.317,0,.345.028.345.38v2.584c0,.352-.028.38-.345.38-.225,0-1.183-.056-4.056-.056H23.458c-.479.923-.993,1.845-1.535,2.739V44.013c0,2.937.063,4.408.063,4.6,0,.324-.028.352-.352.352H18.7c-.317,0-.352-.028-.352-.352,0-.225.07-1.662.07-4.6V32.753a38.943,38.943,0,0,1-9.768,8.042,1.98,1.98,0,0,1-.7.317c-.225,0-.352-.19-.669-.732a6.771,6.771,0,0,0-1.754-1.951A31.98,31.98,0,0,0,19.627,25.253Zm13.754,4.754c.134-.127.225-.19.317-.19s.162.063.289.19a29.438,29.438,0,0,0,10.275,8.042,11.791,11.791,0,0,0-1.592,2.2c-.289.507-.416.732-.606.732-.162,0-.352-.162-.768-.387A34.011,34.011,0,0,1,23.007,32.2c-.225-.282-.19-.38.127-.7Z" transform="translate(36.906 135.52)" fill="#fc8800"/>
      <path id="Path_13" data-name="Path 13" d="M20.017,45.657c1.725-.183,3.542-.444,5.43-.768a12.034,12.034,0,0,0-.289,1.472l-.1.577a17.931,17.931,0,0,0,3.634-7.155A43.506,43.506,0,0,0,29.75,31.65c-1.88.028-2.585.063-2.747.063-.352,0-.38-.035-.38-.352V29.037c0-.324.028-.352.38-.352.162,0,.894.063,2.873.063,0-.831.035-1.662.035-2.556a31.779,31.779,0,0,0-.225-4.5c1.148.028,2.077.1,3.19.225.324.028.479.155.479.352a2.56,2.56,0,0,1-.19.761,13.873,13.873,0,0,0-.19,3.253c0,.866,0,1.662-.035,2.465h1.824c2.451,0,3.289-.063,3.472-.063.324,0,.387.063.387.38-.063,1.084-.063,2.014-.063,3.035a98.123,98.123,0,0,1-.93,14.613c-.415,2.394-1.592,3.507-4.049,3.507-.669,0-1.211-.028-1.754-.056-.739-.07-.739-.07-.831-1.12a7.172,7.172,0,0,0-.641-2.141A16.9,16.9,0,0,0,33,47.157c.965,0,1.5-.507,1.725-2.007a89.844,89.844,0,0,0,.8-13.5H32.848A56.364,56.364,0,0,1,31.665,40.8a20.284,20.284,0,0,1-4.725,9.1c-.317.317-.507.479-.669.479s-.317-.162-.606-.444A5.84,5.84,0,0,0,23.623,48.4a13.5,13.5,0,0,0,1.021-.986,2.384,2.384,0,0,1-.606.127C20.651,48.213,16.5,48.819,12.9,49.2a5.641,5.641,0,0,0-1.176.225,1.227,1.227,0,0,1-.542.19c-.2,0-.352-.19-.451-.542-.19-.824-.387-1.845-.542-2.8a29.341,29.341,0,0,0,3.352-.035c1.113-.063,2.331-.127,3.606-.254V44.128h-1.88c-2.782,0-3.7.063-3.894.063-.317,0-.352-.035-.352-.324V41.959c0-.317.035-.352.352-.352.19,0,1.113.063,3.894.063h1.88V40.3H15.869c-2.718,0-3.641.063-3.831.063-.352,0-.38-.028-.38-.352,0-.225.063-.958.063-2.648V33.945c0-1.718-.063-2.458-.063-2.613,0-.324.028-.352.38-.352.19,0,1.113.063,3.831.063h1.275V29.636H14.785c-2.873,0-3.859.07-4.056.07-.317,0-.352-.035-.352-.352V27.467c0-.317.035-.345.352-.345.2,0,1.183.056,4.056.056h2.359v-1.43c-1.373.127-2.747.254-4.12.317-.894.063-.923.035-1.176-.7a6.678,6.678,0,0,0-.993-1.725,61.036,61.036,0,0,0,11.3-1.211,11.384,11.384,0,0,0,1.754-.542,13.673,13.673,0,0,1,1.817,1.754.788.788,0,0,1,.254.577c0,.19-.254.317-.669.317a9.155,9.155,0,0,0-1.437.225c-1.275.254-2.549.479-3.859.641v1.782h1.852c2.838,0,3.831-.056,4.021-.056.289,0,.317.028.317.345v1.887c0,.317.035.352-.254.352-.2,0-1.246-.07-4.085-.07H20.017v1.408H21.39c2.676,0,3.606-.063,3.831-.063.317,0,.352.028.352.352,0,.155-.07.894-.07,2.613v3.415c0,1.69.07,2.458.07,2.648,0,.324-.035.352-.352.352-.225,0-1.155-.063-3.831-.063H20.017v1.373H21.2c2.739,0,3.7-.063,3.887-.063.324,0,.359.035.359.352v1.908c0,.289-.035.324-.359.324-.19,0-1.148-.063-3.887-.063H20.017ZM17.144,33.051H14.5v1.662h2.648Zm0,3.514H14.5v1.69h2.648Zm2.873-1.852h2.775V33.051H20.017Zm2.775,1.852H20.017v1.69h2.775Z" transform="translate(65.091 133.877)" fill="#fc8800"/>
      <path id="Path_14" data-name="Path 14" d="M25.15,50.085c-3.1,0-4.148.07-4.345.07-.345,0-.38-.035-.38-.387V47.6c0-.317.035-.352.38-.352.2,0,1.246.063,4.345.063h5.331V44.571h-1.7c-2.93,0-3.923.056-4.113.056-.324,0-.352-.028-.352-.345V42.177c0-.324.028-.352.352-.352.19,0,1.183.063,4.113.063h1.7v-2.43h-5.2a24.624,24.624,0,0,1-2.169,3.2c-.289.38-.451.542-.577.542s-.254-.162-.479-.451a6.653,6.653,0,0,0-1.627-1.563L20.135,43.2a23.254,23.254,0,0,1-2.268,6.958c-.254.415-.38.606-.542.606-.127,0-.282-.134-.507-.387a8.28,8.28,0,0,0-2.07-1.915,16.744,16.744,0,0,0,2.324-6.253,44.276,44.276,0,0,0,.479-7.246c0-2.937-.063-4.211-.063-4.4,0-.324.035-.352.352-.352.19,0,1.246.063,4.247.063h2.359a20.805,20.805,0,0,0-1.437-2.838h-.887c-3.07,0-4.092.063-4.282.063-.352,0-.38-.035-.38-.352V25.036c0-.352.028-.387.38-.387.19,0,1.211.07,4.282.07h6.31v-.289a12.974,12.974,0,0,0-.218-2.775c1.183,0,2.268.056,3.317.155.317.035.514.162.514.324a1.43,1.43,0,0,1-.2.6,4.474,4.474,0,0,0-.155,1.662v.324h6.352c3.063,0,4.12-.07,4.31-.07.317,0,.352.035.352.387v2.106c0,.317-.035.352-.352.352-.19,0-1.282-.063-4.345-.063h-.542a2,2,0,0,0-.317.542,19.722,19.722,0,0,1-1.282,2.3h3.359c2.993,0,4.014-.063,4.2-.063.289,0,.324.028.324.352v2.106c0,.324-.035.352-.324.352-.19,0-1.239-.063-4.239-.063H20.748l.028,2.007a52.219,52.219,0,0,1-.352,6,15.372,15.372,0,0,0,3.669-5.648,6.154,6.154,0,0,0,.416-1.655,19.875,19.875,0,0,1,2.775.669c.387.127.415.254.415.38,0,.162-.092.254-.218.38a4.124,4.124,0,0,0-.606,1.148l-.2.479h3.8v-.345a12.036,12.036,0,0,0-.261-2.81c1.183.035,2.239.1,3.324.19.317.035.507.162.507.317a1.592,1.592,0,0,1-.19.641,5.012,5.012,0,0,0-.155,1.662v.345h3.408c2.972,0,3.958-.056,4.155-.056.317,0,.352.028.352.345V39.17c0,.324-.035.352-.352.352-.2,0-1.183-.063-4.155-.063H33.706v2.43h2.261c2.937,0,3.923-.063,4.12-.063.317,0,.352.028.352.352v2.106c0,.317-.035.345-.352.345-.2,0-1.183-.056-4.12-.056H33.706v2.739h5.2c3.092,0,4.183-.063,4.373-.063.317,0,.352.035.352.352v2.169c0,.352-.035.387-.352.387-.19,0-1.282-.07-4.373-.07Zm1.373-22.655a26.009,26.009,0,0,1,1.239,2.838h4.789a22.746,22.746,0,0,0,1.373-2.838Z" transform="translate(92.657 133.659)" fill="#fc8800"/>
      <path id="Path_15" data-name="Path 15" d="M35.085,50.051c-3.063,0-4.12.063-4.31.063-.352,0-.38-.028-.38-.38v-2.3l-.486.162c-2.261.761-4.437,1.366-6.951,1.972a7.769,7.769,0,0,0-1.317.415.827.827,0,0,1-.507.19.5.5,0,0,1-.507-.38c-.317-.894-.542-1.754-.8-2.746a24.838,24.838,0,0,0,3.19-.415l1.437-.282V37.509h-.8c-2.2,0-2.88.035-3.07.035-.317,0-.352-.035-.352-.352v-2.07c0-.359.035-.387.352-.387.19,0,.866.063,3.07.063h.8V32.312c-1.535,0-2.014.056-2.2.056-.324,0-.352-.028-.352-.38v-1.4l-.669.606a1.269,1.269,0,0,1-.641.38c-.19,0-.317-.225-.451-.7a7.312,7.312,0,0,0-.8-2.042A15.544,15.544,0,0,0,23.88,23.4a5.761,5.761,0,0,0,.641-1.725,26.624,26.624,0,0,1,2.965.415c.317.063.479.19.479.415a.6.6,0,0,1-.317.479c-.063.035-.134.063-.162.127a14.724,14.724,0,0,0,3.993,4.12v-.254c0-2.366-.07-3.514-.07-3.7,0-.317.035-.352.352-.352.225,0,1.056.063,3.035.063h2.232c1.916,0,2.465-.063,2.648-.063.352,0,.387.035.387.352v1.887c0,.345-.035.38-.387.38-.162,0-.606-.035-1.817-.063v1.944c.831,0,1.211-.063,1.345-.063.31,0,.345.035.345.352,0,.19-.056.7-.056,1.979v.317a18.611,18.611,0,0,0,2.648-6,11.486,11.486,0,0,0,.254-2.042,27.207,27.207,0,0,1,2.8.606c.254.1.451.254.451.479,0,.2-.162.352-.261.514a3.551,3.551,0,0,0-.408.958L44.5,26.051h1.4c2.042,0,2.648-.063,2.838-.063.324,0,.352.035.352.352v2.232c0,.324-.028.352-.352.352-.19,0-.8-.063-2.838-.063H43.409A17.684,17.684,0,0,1,42.2,31.22c-.254.415-.345.613-.507.613s-.352-.2-.7-.514A6.571,6.571,0,0,0,39.493,30.3v.8c0,1.246.056,1.789.056,2.014,0,.317-.035.352-.345.352-.134,0-.514-.035-1.345-.07V35.53c1.366,0,1.718-.063,1.916-.063.324,0,.345.035.345.352v1.789c0,.317-.021.352-.345.352-.2,0-.549-.063-1.979-.063h-3c-1.979,0-2.81.063-3.035.063-.317,0-.352-.035-.352-.352,0-.162.07-1.31.07-3.669V27.424A7.621,7.621,0,0,0,30.423,28.9c-.225.444-.345.669-.542.669-.155,0-.345-.162-.7-.479a17.077,17.077,0,0,1-3.106-3.669,23.945,23.945,0,0,1-3.289,4.275c.387.028.965.028,1.923.028h2.261c1.789,0,2.3-.063,2.493-.063.289,0,.324.035.324.352v1.979c0,.352-.035.38-.324.38-.19,0-.669-.056-2.232-.056V34.8c2.07,0,2.711-.063,2.9-.063.317,0,.352.028.352.387v2.07c0,.317-.035.352-.352.352-.19,0-.831-.035-2.9-.035v8.2c1.211-.317,2.458-.669,3.824-1.12a16.456,16.456,0,0,0-.12,1.725c-.035.606-.035.8-.254.958.19,0,.662.035,1.754.063V42.586c0-1.754-.063-2.521-.063-2.746,0-.317.028-.352.352-.352.19,0,1.148.063,3.986.063h6.444c2.838,0,3.8-.063,4.021-.063.317,0,.352.035.352.352,0,.19-.063.993-.063,2.711V47.34c.894-.028,1.31-.063,1.437-.063.317,0,.352.035.352.352v2.106c0,.352-.035.38-.352.38-.19,0-1.211-.063-4.31-.063ZM22.028,38.882c.416-.162.451-.162.577.162a25.216,25.216,0,0,1,1.176,4.782c.035.352.035.451-.408.613l-1.246.479c-.451.155-.514.19-.542-.2a23.929,23.929,0,0,0-1.148-4.782c-.127-.324-.1-.415.31-.577Zm6.7,1.084a7.846,7.846,0,0,0,.19-1.3A12.976,12.976,0,0,1,31,39.4c.254.092.317.19.317.317a.5.5,0,0,1-.19.38,1.468,1.468,0,0,0-.387.7,27.626,27.626,0,0,1-.986,2.845c-.162.38-.218.535-.387.535a2.228,2.228,0,0,1-.57-.225,4.157,4.157,0,0,0-1.183-.31,29.458,29.458,0,0,0,1.12-3.676m6.859-14.486H33.838v1.944h1.754Zm1.627,3.958h-3.38v1.944h3.38Zm-1.627,3.951H33.838V35.53h1.754Zm1.183,8.782H35.211V47.34h1.563Zm3.923,0H39.1V47.34h1.6ZM45.8,33.488c1.662,0,2.113-.063,2.3-.063.359,0,.387.035.387.352v2.331c0,.317-.028.352-.387.352-.183,0-.634-.063-2.3-.063H43.831c-1.634,0-2.078.063-2.268.063-.317,0-.352-.035-.352-.352V33.777c0-.317.035-.352.352-.352.19,0,.634.063,2.268.063ZM43.028,47.34h1.6V42.171h-1.6Z" transform="translate(120.435 133.792)" fill="#fc8800"/>
      <path id="Path_16" data-name="Path 16" d="M34.276,34.052c-3.092,0-4.113.063-4.31.063-.352,0-.38-.028-.38-.352V31.433c0-.317.028-.352.38-.352.2,0,1.218.07,4.31.07h9.007c3.056,0,4.113-.07,4.3-.07.317,0,.352.035.352.352v2.331c0,.324-.035.352-.352.352-.19,0-1.246-.063-4.3-.063H40.565V38.3h3.894c2.62,0,3.479-.07,3.669-.07.352,0,.387.035.387.352v2.331c0,.289-.035.324-.387.324-.19,0-1.049-.07-3.669-.07H40.565v5.458a52.546,52.546,0,0,0,6.162.289c1.817,0,4.085-.127,6.19-.289a9.014,9.014,0,0,0-.606,2.3c-.134.993-.155.993-1.148,1.092-1.218.063-2.493.092-3.768.092-11.423-.028-13.662-1.753-16.183-5.549a18.066,18.066,0,0,1-3.894,5.458c-.317.352-.507.542-.7.542-.162,0-.317-.19-.641-.606a6.836,6.836,0,0,0-1.852-1.662A15.059,15.059,0,0,0,29.868,38.2a14.719,14.719,0,0,0,.2-2.042c1.049.155,2.113.38,3.028.606.451.1.606.225.606.444a1,1,0,0,1-.282.613,2.585,2.585,0,0,0-.416.986c-.162.894-.352,1.725-.57,2.521,1.148,2.232,2.3,3.7,4.782,4.563V34.052Zm13.345-9.063c2.965,0,4.014-.063,4.211-.063.324,0,.345.028.345.317,0,.225-.056.768-.056,1.655v1.38c0,2.838.056,3.317.056,3.507,0,.317-.021.352-.345.352H49.22c-.324,0-.352-.035-.352-.352V27.926h-20.2v3.859c0,.317-.028.352-.387.352H25.7c-.324,0-.352-.035-.352-.352,0-.218.063-.669.063-3.507V27.186c0-1.176-.063-1.718-.063-1.944,0-.289.028-.317.352-.317.218,0,1.239.063,4.239.063h6.831V24.7a12.972,12.972,0,0,0-.225-3.035c1.183,0,2.331.07,3.416.162.289.035.479.127.479.324a1.475,1.475,0,0,1-.19.606,5.715,5.715,0,0,0-.127,1.915v.317Z" transform="translate(149.335 133.713)" fill="#fc8800"/>
      <path id="Path_17" data-name="Path 17" d="M35.026,48.648c-3.092,0-4.12.063-4.31.063-.317,0-.352-.028-.352-.352V45.712c0-.317.035-.345.352-.345.19,0,1.218.056,4.31.056H40.71V34.7H33.047c-2.873,0-3.859.063-4.049.063-.324,0-.352-.035-.352-.352V31.8c0-.345.028-.38.352-.38.19,0,1.176.063,4.049.063H40.71V25.641a17.929,17.929,0,0,0-.254-3.894c1.169.035,2.549.092,3.634.218.289.035.472.162.472.352a1.529,1.529,0,0,1-.155.641,8.061,8.061,0,0,0-.19,2.493v6.028h8.071c2.873,0,3.866-.063,4.056-.063.317,0,.352.035.352.38v2.62c0,.317-.035.352-.352.352-.19,0-1.183-.063-4.056-.063H44.217V45.423h6.028c3.07,0,4.12-.056,4.31-.056.317,0,.352.028.352.345v2.648c0,.324-.035.352-.352.352-.19,0-1.239-.063-4.31-.063Z" transform="translate(176.635 134.208)" fill="#fc8800"/>
    </g>
  </g>
</svg>
