<svg xmlns="http://www.w3.org/2000/svg" xmlns:xlink="http://www.w3.org/1999/xlink" width="180" height="40.708" viewBox="0 0 180 40.708">
  <defs>
    <clipPath id="clip-path">
      <rect id="Rectangle_69" data-name="Rectangle 69" width="180" height="40.708" fill="none"/>
    </clipPath>
  </defs>
  <g id="Group_43" data-name="Group 43" transform="translate(0 0)">
    <g id="Group_42" data-name="Group 42" transform="translate(0 0)" clip-path="url(#clip-path)">
      <path id="Path_27" data-name="Path 27" d="M12.178,22.655l-4.868-8.9H5.462v8.9H.172V.228H8.725a14.878,14.878,0,0,1,3.155.333,8.239,8.239,0,0,1,2.756,1.125,5.9,5.9,0,0,1,1.946,2.091,6.5,6.5,0,0,1,.729,3.231,5.975,5.975,0,0,1-1.233,3.833,6.76,6.76,0,0,1-3.421,2.217l5.858,9.6ZM11.956,7.1a2.246,2.246,0,0,0-.333-1.283,2.294,2.294,0,0,0-.861-.76,3.747,3.747,0,0,0-1.177-.364,8.715,8.715,0,0,0-1.257-.1H5.43V9.826H8.009a8.7,8.7,0,0,0,1.367-.111,4.392,4.392,0,0,0,1.275-.4,2.3,2.3,0,0,0,1.3-2.217" transform="translate(0.282 0.374)" fill="#666"/>
      <path id="Path_28" data-name="Path 28" d="M8.608,22.656V.228H23.687V4.79H13.832V9.034h9.316v4.34H13.832v4.657H24.257v4.625Z" transform="translate(14.116 0.374)" fill="#666"/>
      <path id="Path_29" data-name="Path 29" d="M29.6,6.411A4.911,4.911,0,0,0,27.782,5a5.15,5.15,0,0,0-2.173-.523,6.453,6.453,0,0,0-1.09.1,2.854,2.854,0,0,0-1,.364,2.458,2.458,0,0,0-.742.7,1.856,1.856,0,0,0-.3,1.093,1.762,1.762,0,0,0,.238.95,2.131,2.131,0,0,0,.694.665,6.3,6.3,0,0,0,1.093.523c.425.158.9.322,1.425.491.763.253,1.552.533,2.378.839a8.869,8.869,0,0,1,2.246,1.22A6.41,6.41,0,0,1,32.232,13.3a5.428,5.428,0,0,1,.665,2.8,7.324,7.324,0,0,1-.713,3.342,6.664,6.664,0,0,1-1.916,2.328,8.237,8.237,0,0,1-2.756,1.362,11.616,11.616,0,0,1-3.2.443,13.236,13.236,0,0,1-4.659-.839,9.866,9.866,0,0,1-3.738-2.392l3.548-3.611a6.61,6.61,0,0,0,2.17,1.695,5.9,5.9,0,0,0,2.679.681,5.363,5.363,0,0,0,1.169-.127,2.88,2.88,0,0,0,1-.412,2.046,2.046,0,0,0,.684-.76,2.393,2.393,0,0,0,.253-1.14A1.8,1.8,0,0,0,27.1,15.6a3.129,3.129,0,0,0-.9-.808,7.272,7.272,0,0,0-1.457-.665q-.875-.3-1.98-.649a18.721,18.721,0,0,1-2.107-.824,7.065,7.065,0,0,1-1.84-1.22,5.682,5.682,0,0,1-1.3-1.806,6.12,6.12,0,0,1-.494-2.582,6.348,6.348,0,0,1,.76-3.2,6.644,6.644,0,0,1,2-2.186A8.548,8.548,0,0,1,22.571.408,12.634,12.634,0,0,1,25.7.012a11.646,11.646,0,0,1,3.883.7,10.015,10.015,0,0,1,3.469,2.059Z" transform="translate(26.098 0.02)" fill="#666"/>
      <path id="Path_30" data-name="Path 30" d="M42.887,17.888a8.09,8.09,0,0,1-1.948,2.851,9.01,9.01,0,0,1-3.057,1.853,12.259,12.259,0,0,1-7.967,0A8.707,8.707,0,0,1,26.9,20.739a8.074,8.074,0,0,1-1.9-2.851,9.855,9.855,0,0,1-.665-3.69V.228h5.385V13.754a6.243,6.243,0,0,0,.238,1.742,4.473,4.473,0,0,0,.729,1.473A3.417,3.417,0,0,0,31.99,18a5.182,5.182,0,0,0,3.9,0,3.555,3.555,0,0,0,1.315-1.03,4.142,4.142,0,0,0,.729-1.473,6.661,6.661,0,0,0,.222-1.742V.228h5.417V14.2a9.652,9.652,0,0,1-.681,3.69" transform="translate(39.912 0.374)" fill="#666"/>
      <path id="Path_31" data-name="Path 31" d="M47.1,4.853v17.8H41.677V4.853H35.344V.228H53.429V4.853Z" transform="translate(57.956 0.374)" fill="#666"/>
      <path id="Path_32" data-name="Path 32" d="M66.918,11.721A12.555,12.555,0,0,1,66,16.583a11.109,11.109,0,0,1-2.55,3.77,11.371,11.371,0,0,1-3.88,2.423,13.617,13.617,0,0,1-4.881.855,13.46,13.46,0,0,1-4.86-.855,11.352,11.352,0,0,1-3.865-2.423,11.034,11.034,0,0,1-2.55-3.77,12.507,12.507,0,0,1-.921-4.862,12.358,12.358,0,0,1,.921-4.862,10.611,10.611,0,0,1,2.55-3.69A11.335,11.335,0,0,1,49.831.824,13.923,13.923,0,0,1,54.691,0a14.086,14.086,0,0,1,4.881.824,11.356,11.356,0,0,1,3.88,2.344A10.682,10.682,0,0,1,66,6.858a12.4,12.4,0,0,1,.916,4.862m-5.794,0A7.7,7.7,0,0,0,60.646,9a6.491,6.491,0,0,0-1.315-2.17A6.057,6.057,0,0,0,57.307,5.4a6.422,6.422,0,0,0-2.616-.523A6.3,6.3,0,0,0,52.1,5.4,6.126,6.126,0,0,0,48.751,9a7.933,7.933,0,0,0-.457,2.724,8.012,8.012,0,0,0,.473,2.8,6.64,6.64,0,0,0,1.315,2.2A5.987,5.987,0,0,0,52.1,18.167a6.716,6.716,0,0,0,5.2,0,6.136,6.136,0,0,0,2.025-1.441,6.5,6.5,0,0,0,1.33-2.2,8.013,8.013,0,0,0,.478-2.8" transform="translate(69.682 0)" fill="#666"/>
      <path id="Path_33" data-name="Path 33" d="M76.89,11.721a12.506,12.506,0,0,1-.916,4.862,11.115,11.115,0,0,1-2.553,3.77,11.359,11.359,0,0,1-3.878,2.423,13.631,13.631,0,0,1-4.884.855,13.47,13.47,0,0,1-4.86-.855,11.392,11.392,0,0,1-3.862-2.423,11.078,11.078,0,0,1-2.553-3.77,12.507,12.507,0,0,1-.919-4.862,12.358,12.358,0,0,1,.919-4.862,10.653,10.653,0,0,1,2.553-3.69A11.374,11.374,0,0,1,59.8.824,13.934,13.934,0,0,1,64.66,0a14.1,14.1,0,0,1,4.884.824,11.344,11.344,0,0,1,3.878,2.344,10.688,10.688,0,0,1,2.553,3.69,12.358,12.358,0,0,1,.916,4.862m-5.794,0A7.755,7.755,0,0,0,70.621,9a6.579,6.579,0,0,0-1.315-2.17A6.079,6.079,0,0,0,67.276,5.4a6.4,6.4,0,0,0-2.616-.523A6.155,6.155,0,0,0,58.723,9a7.934,7.934,0,0,0-.459,2.724,7.953,7.953,0,0,0,.478,2.8,6.629,6.629,0,0,0,1.309,2.2,6.024,6.024,0,0,0,2.017,1.441,6.709,6.709,0,0,0,5.192,0,6.082,6.082,0,0,0,2.025-1.441,6.512,6.512,0,0,0,1.336-2.2,8.074,8.074,0,0,0,.475-2.8" transform="translate(86.033 0)" fill="#666"/>
      <path id="Path_34" data-name="Path 34" d="M62.836,22.656V.228h5.448V17.936h8.68v4.72Z" transform="translate(103.036 0.374)" fill="#666"/>
      <path id="Path_35" data-name="Path 35" d="M2.508,15.6H1.581v3.342H.792V15.6H0v-.649H.792v-.832a2.426,2.426,0,0,1,.079-.652,1.28,1.28,0,0,1,.261-.517,1.2,1.2,0,0,1,.462-.346,1.677,1.677,0,0,1,.686-.127,1.843,1.843,0,0,1,.5.058l-.092.684a1.443,1.443,0,0,0-.185-.042,1.232,1.232,0,0,0-.211-.018.735.735,0,0,0-.367.079.58.58,0,0,0-.214.216.872.872,0,0,0-.1.306,2.275,2.275,0,0,0-.026.359v.832h.927Z" transform="translate(49.965 20.455)" fill="#666"/>
      <path id="Path_36" data-name="Path 36" d="M5.492,15.469a2.164,2.164,0,0,1-.161.847,2.022,2.022,0,0,1-1.143,1.109,2.4,2.4,0,0,1-1.7,0,1.989,1.989,0,0,1-.681-.438,2.084,2.084,0,0,1-.451-.67,2.164,2.164,0,0,1-.161-.847,2.136,2.136,0,0,1,.161-.847,2.014,2.014,0,0,1,1.132-1.1,2.4,2.4,0,0,1,1.7,0,2.073,2.073,0,0,1,.686.436,2.011,2.011,0,0,1,.457.66,2.136,2.136,0,0,1,.161.847m-.824,0a1.716,1.716,0,0,0-.087-.546,1.415,1.415,0,0,0-.259-.457,1.234,1.234,0,0,0-.417-.314,1.319,1.319,0,0,0-.57-.119,1.331,1.331,0,0,0-.573.119,1.234,1.234,0,0,0-.417.314,1.466,1.466,0,0,0-.259.457,1.757,1.757,0,0,0,0,1.093,1.479,1.479,0,0,0,.259.459,1.184,1.184,0,0,0,.417.319,1.331,1.331,0,0,0,.573.119,1.319,1.319,0,0,0,.57-.119,1.184,1.184,0,0,0,.417-.319,1.428,1.428,0,0,0,.259-.459,1.716,1.716,0,0,0,.087-.546" transform="translate(51.923 21.924)" fill="#666"/>
      <path id="Path_37" data-name="Path 37" d="M3.186,13.925c-.005-.166-.013-.317-.026-.446h.75c.011.1.018.219.026.348s.008.24.008.325H3.97a1.364,1.364,0,0,1,.491-.568,1.289,1.289,0,0,1,.729-.214,1.167,1.167,0,0,1,.311.034l-.034.731a1.439,1.439,0,0,0-.359-.042,1.079,1.079,0,0,0-.5.106,1,1,0,0,0-.351.28,1.27,1.27,0,0,0-.206.409,1.844,1.844,0,0,0-.066.486v2.1H3.194V14.337q0-.158-.008-.412" transform="translate(55.146 21.926)" fill="#666"/>
      <path id="Path_38" data-name="Path 38" d="M7.733,12.82c-1.077,0-1.449.021-1.518.021-.119,0-.132-.011-.132-.143V11.73c0-.132.013-.143.132-.143.069,0,.441.024,1.518.024h7.2c1.077,0,1.433-.024,1.521-.024.119,0,.129.011.129.143V12.7c0,.132-.011.143-.129.143-.087,0-.443-.021-1.521-.021H12.445c-.177.346-.372.692-.573,1.027v6.005c0,1.1.024,1.652.024,1.724,0,.121-.013.132-.132.132h-1.1c-.121,0-.132-.011-.132-.132,0-.084.024-.623.024-1.724V15.631A14.538,14.538,0,0,1,6.9,18.646a.779.779,0,0,1-.261.119c-.084,0-.135-.071-.256-.275a2.429,2.429,0,0,0-.657-.731,11.987,11.987,0,0,0,5.287-4.939ZM12.892,14.6c.048-.048.079-.071.116-.071s.061.024.108.071a10.987,10.987,0,0,0,3.851,3.015,4.556,4.556,0,0,0-.6.826c-.106.19-.153.275-.227.275-.055,0-.129-.061-.285-.145a12.786,12.786,0,0,1-3.577-3.147c-.084-.106-.074-.143.048-.261Z" transform="translate(59.347 19)" fill="#fc8800"/>
      <path id="Path_39" data-name="Path 39" d="M14.071,20.3c.647-.069,1.328-.166,2.035-.288a4.511,4.511,0,0,0-.108.552l-.037.216A6.758,6.758,0,0,0,17.326,18.1a16.308,16.308,0,0,0,.4-3.049c-.707.011-.969.024-1.032.024-.129,0-.14-.013-.14-.132v-.871c0-.121.011-.132.14-.132.063,0,.335.024,1.08.024,0-.311.011-.623.011-.958a11.531,11.531,0,0,0-.084-1.687c.43.011.779.037,1.2.084.121.011.182.058.182.132a.894.894,0,0,1-.074.285,5.2,5.2,0,0,0-.071,1.22c0,.325,0,.623-.011.924H19.6c.921,0,1.233-.024,1.3-.024.119,0,.145.024.145.143-.026.407-.026.755-.026,1.138a36.481,36.481,0,0,1-.346,5.478,1.361,1.361,0,0,1-1.521,1.315c-.251,0-.454-.011-.657-.021-.277-.026-.277-.026-.311-.42a2.766,2.766,0,0,0-.238-.8,6.278,6.278,0,0,0,.993.1c.359,0,.562-.19.644-.752a33.679,33.679,0,0,0,.3-5.06h-1a20.838,20.838,0,0,1-.443,3.432,7.6,7.6,0,0,1-1.769,3.411c-.119.119-.193.18-.251.18s-.121-.061-.227-.166a2.213,2.213,0,0,0-.766-.575,5.024,5.024,0,0,0,.38-.37.845.845,0,0,1-.227.048c-1.267.251-2.822.478-4.176.62a2.192,2.192,0,0,0-.441.084.439.439,0,0,1-.2.071c-.071,0-.132-.071-.166-.2-.074-.309-.145-.692-.2-1.051a10.96,10.96,0,0,0,1.254-.013c.417-.024.874-.048,1.352-.1v-.694h-.7c-1.04,0-1.389.024-1.457.024-.121,0-.135-.013-.135-.121v-.715c0-.119.013-.132.135-.132.069,0,.417.024,1.457.024h.7v-.515h-.478c-1.016,0-1.362.024-1.436.024-.129,0-.143-.011-.143-.132,0-.084.024-.359.024-.993v-1.28c0-.644-.024-.921-.024-.979,0-.121.013-.132.143-.132.074,0,.42.024,1.436.024h.478v-.528H12.11c-1.077,0-1.447.026-1.518.026-.121,0-.132-.013-.132-.132V13.48c0-.119.011-.129.132-.129.071,0,.441.021,1.518.021h.884v-.536c-.512.048-1.03.1-1.542.119-.335.024-.348.013-.443-.264a2.36,2.36,0,0,0-.372-.647,22.879,22.879,0,0,0,4.237-.454,4.091,4.091,0,0,0,.657-.2,5.331,5.331,0,0,1,.684.657.3.3,0,0,1,.1.216c0,.071-.1.119-.253.119a3.358,3.358,0,0,0-.536.084c-.48.1-.958.18-1.449.24v.668h.694c1.064,0,1.436-.021,1.507-.021.108,0,.119.011.119.129v.707c0,.119.013.132-.1.132-.071,0-.467-.026-1.531-.026h-.694v.528h.515c1,0,1.352-.024,1.436-.024.119,0,.132.011.132.132,0,.058-.026.335-.026.979v1.28c0,.634.026.921.026.993,0,.121-.013.132-.132.132-.084,0-.433-.024-1.436-.024h-.515V18.8h.443c1.03,0,1.389-.024,1.46-.024.119,0,.132.013.132.132v.715c0,.108-.013.121-.132.121-.071,0-.43-.024-1.46-.024h-.443Zm-1.077-4.725H12V16.2h.993Zm0,1.317H12v.634h.993Zm1.077-.694h1.043v-.623H14.071Zm1.043.694H14.071v.634h1.043Z" transform="translate(67 18.554)" fill="#fc8800"/>
      <path id="Path_40" data-name="Path 40" d="M18.852,21.936c-1.161,0-1.555.026-1.629.026-.129,0-.143-.013-.143-.145V21c0-.119.013-.132.143-.132.074,0,.467.024,1.629.024h2V19.869h-.636c-1.1,0-1.47.021-1.544.021-.119,0-.129-.011-.129-.129v-.789c0-.121.011-.132.129-.132.074,0,.443.024,1.544.024h.636v-.911H18.9a9.5,9.5,0,0,1-.813,1.2c-.108.143-.169.2-.216.2s-.1-.061-.18-.169a2.541,2.541,0,0,0-.61-.586l-.108.755a8.717,8.717,0,0,1-.85,2.608c-.1.156-.143.227-.2.227s-.108-.05-.19-.145a3.064,3.064,0,0,0-.779-.718,6.236,6.236,0,0,0,.874-2.344A16.6,16.6,0,0,0,16,16.266c0-1.1-.024-1.579-.024-1.65,0-.121.013-.132.132-.132.071,0,.465.024,1.589.024h.887a7.8,7.8,0,0,0-.539-1.064h-.335c-1.148,0-1.531.024-1.6.024-.132,0-.143-.013-.143-.132v-.789c0-.132.011-.145.143-.145.071,0,.454.026,1.6.026h2.368v-.108A4.674,4.674,0,0,0,20,11.279c.443,0,.853.021,1.246.058.119.013.19.061.19.121a.53.53,0,0,1-.071.224,1.655,1.655,0,0,0-.061.623v.121h2.384c1.148,0,1.544-.026,1.616-.026.119,0,.132.013.132.145v.789c0,.119-.013.132-.132.132-.071,0-.48-.024-1.629-.024h-.2a.75.75,0,0,0-.119.2,7.393,7.393,0,0,1-.48.861h1.259c1.122,0,1.5-.024,1.576-.024.108,0,.121.011.121.132V15.4c0,.121-.013.132-.121.132-.071,0-.465-.024-1.589-.024H17.2l.011.752a19.575,19.575,0,0,1-.132,2.249A5.762,5.762,0,0,0,18.456,16.4a2.41,2.41,0,0,0,.156-.62,7.451,7.451,0,0,1,1.04.251c.145.048.156.1.156.143s-.037.1-.082.143a1.479,1.479,0,0,0-.227.43l-.074.18H20.85v-.129a4.512,4.512,0,0,0-.1-1.053c.443.013.839.037,1.243.071.121.013.193.061.193.119a.6.6,0,0,1-.071.24,1.879,1.879,0,0,0-.058.623v.129h1.278c1.114,0,1.484-.021,1.557-.021.119,0,.132.011.132.129v.813c0,.121-.013.132-.132.132-.074,0-.443-.024-1.557-.024H22.059v.911h.847c1.1,0,1.47-.024,1.544-.024.119,0,.132.011.132.132v.789c0,.119-.013.129-.132.129-.074,0-.443-.021-1.544-.021h-.847V20.9h1.948c1.159,0,1.568-.024,1.639-.024.119,0,.132.013.132.132v.813c0,.132-.013.145-.132.145-.071,0-.48-.026-1.639-.026Zm.515-8.492a10.289,10.289,0,0,1,.465,1.064h1.8a8.914,8.914,0,0,0,.515-1.064Z" transform="translate(74.479 18.495)" fill="#fc8800"/>
      <path id="Path_41" data-name="Path 41" d="M25.445,21.937c-1.146,0-1.544.024-1.613.024-.132,0-.145-.011-.145-.143v-.861l-.18.061c-.847.285-1.663.512-2.605.739a2.755,2.755,0,0,0-.494.156.31.31,0,0,1-.19.071.189.189,0,0,1-.193-.143c-.116-.335-.2-.657-.3-1.03a9.25,9.25,0,0,0,1.2-.156l.539-.106V17.235h-.3c-.824,0-1.077.013-1.148.013-.119,0-.132-.013-.132-.132V16.34c0-.135.013-.145.132-.145.071,0,.325.024,1.148.024h.3v-.932c-.573,0-.755.021-.824.021-.121,0-.132-.011-.132-.143V14.64l-.253.227a.482.482,0,0,1-.238.143c-.074,0-.119-.084-.169-.261a2.741,2.741,0,0,0-.3-.766,5.789,5.789,0,0,0,1.7-2.035,2.09,2.09,0,0,0,.24-.647,9.943,9.943,0,0,1,1.114.156c.119.024.177.071.177.156a.222.222,0,0,1-.116.18c-.024.013-.05.024-.061.048a5.483,5.483,0,0,0,1.5,1.544v-.1c0-.887-.026-1.317-.026-1.389,0-.119.013-.132.132-.132.084,0,.4.024,1.135.024h.839c.718,0,.921-.024.993-.024.129,0,.143.013.143.132v.707c0,.129-.013.143-.143.143-.061,0-.227-.013-.681-.024v.729c.311,0,.454-.024.5-.024.119,0,.132.013.132.132,0,.071-.024.261-.024.742v.119a6.92,6.92,0,0,0,.993-2.249,4.076,4.076,0,0,0,.1-.766,10.256,10.256,0,0,1,1.053.227c.1.037.166.1.166.18s-.058.132-.1.193a1.408,1.408,0,0,0-.156.359l-.18.573H29.5c.766,0,.993-.024,1.066-.024.121,0,.129.013.129.132v.837c0,.121-.008.132-.129.132-.074,0-.3-.024-1.066-.024h-.932a6.956,6.956,0,0,1-.454.884c-.1.156-.132.23-.19.23s-.132-.074-.264-.193a2.417,2.417,0,0,0-.562-.383v.3c0,.467.024.67.024.755,0,.119-.013.132-.132.132-.048,0-.19-.013-.5-.026v.8c.512,0,.644-.024.715-.024.121,0,.132.013.132.132v.67c0,.119-.011.132-.132.132-.071,0-.2-.024-.739-.024H25.337c-.739,0-1.051.024-1.135.024-.119,0-.132-.013-.132-.132,0-.061.026-.491.026-1.375V13.455a2.857,2.857,0,0,0-.4.552c-.084.166-.132.251-.2.251s-.132-.061-.264-.18A6.462,6.462,0,0,1,22.072,12.7a9.1,9.1,0,0,1-1.233,1.6c.145.011.362.011.721.011h.847c.67,0,.863-.024.932-.024.108,0,.121.013.121.132v.742c0,.132-.013.143-.121.143-.069,0-.248-.021-.834-.021v.932c.776,0,1.016-.024,1.088-.024.119,0,.132.011.132.145v.776c0,.119-.013.132-.132.132-.071,0-.311-.013-1.088-.013v3.075c.454-.119.921-.251,1.433-.42a5.513,5.513,0,0,0-.048.647c-.013.227-.013.3-.1.359.074,0,.251.013.657.024V19.138c0-.657-.024-.945-.024-1.03,0-.119.011-.132.132-.132.074,0,.43.024,1.5.024h2.415c1.064,0,1.423-.024,1.507-.024.119,0,.132.013.132.132,0,.071-.024.372-.024,1.016v1.8c.335-.011.491-.024.539-.024.119,0,.132.013.132.132v.789c0,.132-.013.143-.132.143-.071,0-.457-.024-1.616-.024ZM20.554,17.75c.153-.061.166-.061.216.061a9.452,9.452,0,0,1,.441,1.792c.013.132.013.169-.156.23l-.467.18c-.166.058-.19.071-.2-.074a8.793,8.793,0,0,0-.43-1.792c-.045-.121-.037-.156.119-.216Zm2.513.407a2.94,2.94,0,0,0,.069-.488,4.773,4.773,0,0,1,.779.275c.1.034.121.071.121.119a.2.2,0,0,1-.071.143.529.529,0,0,0-.145.264,9.813,9.813,0,0,1-.372,1.066c-.058.143-.082.2-.143.2a.835.835,0,0,1-.214-.084,1.582,1.582,0,0,0-.443-.116,11.044,11.044,0,0,0,.42-1.378m2.568-5.43h-.657v.729h.657Zm.612,1.484H24.981v.729h1.267Zm-.612,1.481h-.657v.8h.657Zm.443,3.292h-.586V20.92h.586Zm1.473,0h-.6V20.92h.6Zm1.914-3.255c.623,0,.789-.024.861-.024.135,0,.145.013.145.132v.874c0,.119-.011.132-.145.132-.071,0-.238-.024-.861-.024h-.742c-.61,0-.779.024-.85.024-.119,0-.132-.013-.132-.132v-.874c0-.119.013-.132.132-.132.071,0,.24.024.85.024Zm-1.04,5.192h.6V18.983h-.6Z" transform="translate(82.019 18.531)" fill="#fc8800"/>
      <path id="Path_42" data-name="Path 42" d="M28.135,15.93c-1.159,0-1.542.024-1.616.024-.132,0-.143-.011-.143-.132v-.874c0-.119.011-.132.143-.132.074,0,.457.026,1.616.026h3.376c1.146,0,1.542-.026,1.613-.026.119,0,.132.013.132.132v.874c0,.121-.013.132-.132.132-.071,0-.467-.024-1.613-.024H30.492v1.592h1.46c.982,0,1.3-.026,1.375-.026.132,0,.145.013.145.132V18.5c0,.108-.013.121-.145.121-.071,0-.393-.026-1.375-.026h-1.46v2.046a19.7,19.7,0,0,0,2.31.108c.681,0,1.531-.048,2.32-.108a3.379,3.379,0,0,0-.227.861c-.05.372-.058.372-.43.409-.457.024-.934.034-1.412.034-4.282-.011-5.121-.657-6.066-2.08a6.772,6.772,0,0,1-1.46,2.046c-.119.132-.19.2-.261.2s-.119-.071-.24-.227a2.562,2.562,0,0,0-.694-.623,5.645,5.645,0,0,0,2.151-3.78,5.518,5.518,0,0,0,.074-.766c.393.058.792.143,1.135.227.169.037.227.084.227.166a.374.374,0,0,1-.106.23.969.969,0,0,0-.156.37c-.061.335-.132.647-.214.945a2.982,2.982,0,0,0,1.792,1.711V15.93Zm5-3.4c1.111,0,1.5-.024,1.579-.024.121,0,.129.011.129.119,0,.084-.021.288-.021.62v.517c0,1.064.021,1.243.021,1.315,0,.119-.008.132-.129.132h-.979c-.121,0-.132-.013-.132-.132V13.634H26.031V15.08c0,.119-.011.132-.145.132H24.92c-.121,0-.132-.013-.132-.132,0-.082.024-.251.024-1.315v-.409c0-.441-.024-.644-.024-.729,0-.108.011-.119.132-.119.082,0,.465.024,1.589.024h2.561v-.108a4.863,4.863,0,0,0-.084-1.138c.443,0,.874.026,1.28.061.108.013.18.048.18.121a.553.553,0,0,1-.071.227,2.142,2.142,0,0,0-.048.718v.119Z" transform="translate(89.862 18.508)" fill="#fc8800"/>
      <path id="Path_43" data-name="Path 43" d="M31.241,21.453c-1.159,0-1.544.024-1.616.024-.119,0-.132-.011-.132-.132v-.993c0-.119.013-.129.132-.129.071,0,.457.021,1.616.021h2.13V16.226H30.5c-1.077,0-1.447.024-1.518.024-.121,0-.132-.013-.132-.132v-.982c0-.129.011-.143.132-.143.071,0,.441.024,1.518.024h2.872V12.829a6.72,6.72,0,0,0-.1-1.46c.438.013.956.034,1.362.082.108.013.177.061.177.132a.573.573,0,0,1-.058.24,3.022,3.022,0,0,0-.071.934v2.26h3.025c1.077,0,1.449-.024,1.521-.024.119,0,.132.013.132.143v.982c0,.119-.013.132-.132.132-.071,0-.443-.024-1.521-.024H34.686v4.018h2.26c1.151,0,1.544-.021,1.616-.021.119,0,.132.011.132.129v.993c0,.121-.013.132-.132.132-.071,0-.465-.024-1.616-.024Z" transform="translate(97.27 18.643)" fill="#fc8800"/>
    </g>
  </g>
</svg>
