<svg xmlns="http://www.w3.org/2000/svg" xmlns:xlink="http://www.w3.org/1999/xlink" width="137.06" height="30.997" viewBox="0 0 137.06 30.997">
  <defs>
    <clipPath id="clip-path">
      <rect id="Rectangle_69" data-name="Rectangle 69" width="137.06" height="30.997" fill="none"/>
    </clipPath>
  </defs>
  <g id="Group_43" data-name="Group 43" transform="translate(0 0)">
    <g id="Group_42" data-name="Group 42" transform="translate(0 0)" clip-path="url(#clip-path)">
      <path id="Path_27" data-name="Path 27" d="M9.314,17.305,5.607,10.527H4.2v6.778H.172V.228H6.684a11.329,11.329,0,0,1,2.4.253,6.273,6.273,0,0,1,2.1.856,4.491,4.491,0,0,1,1.481,1.592,4.95,4.95,0,0,1,.555,2.46,4.549,4.549,0,0,1-.939,2.919A5.147,5.147,0,0,1,9.677,10l4.46,7.308ZM9.145,5.462a1.71,1.71,0,0,0-.253-.977,1.747,1.747,0,0,0-.655-.579,2.853,2.853,0,0,0-.9-.277,6.636,6.636,0,0,0-.957-.072H4.176v3.98H6.14a6.627,6.627,0,0,0,1.041-.084,3.344,3.344,0,0,0,.971-.3,1.754,1.754,0,0,0,.993-1.688" transform="translate(0.174 0.23)" fill="#666"/>
      <path id="Path_28" data-name="Path 28" d="M8.608,17.305V.228H20.09V3.7h-7.5V6.934H19.68v3.3H12.586v3.546h7.938v3.522Z" transform="translate(8.695 0.231)" fill="#666"/>
      <path id="Path_29" data-name="Path 29" d="M26.338,4.884a3.739,3.739,0,0,0-1.387-1.073,3.921,3.921,0,0,0-1.654-.4,4.913,4.913,0,0,0-.83.072,2.173,2.173,0,0,0-.762.277,1.872,1.872,0,0,0-.565.531,1.413,1.413,0,0,0-.229.832,1.342,1.342,0,0,0,.181.724,1.622,1.622,0,0,0,.529.507,4.8,4.8,0,0,0,.832.4c.324.121.683.245,1.085.374.581.193,1.182.406,1.811.639A6.753,6.753,0,0,1,27.06,8.7a4.881,4.881,0,0,1,1.28,1.435,4.133,4.133,0,0,1,.507,2.135A5.577,5.577,0,0,1,28.3,14.81a5.075,5.075,0,0,1-1.459,1.773,6.272,6.272,0,0,1-2.1,1.037,8.845,8.845,0,0,1-2.436.338,10.079,10.079,0,0,1-3.548-.639A7.512,7.512,0,0,1,15.916,15.5l2.7-2.75a5.033,5.033,0,0,0,1.652,1.29,4.492,4.492,0,0,0,2.04.519,4.083,4.083,0,0,0,.89-.1,2.193,2.193,0,0,0,.76-.314,1.558,1.558,0,0,0,.521-.579,1.822,1.822,0,0,0,.193-.868,1.374,1.374,0,0,0-.241-.82,2.382,2.382,0,0,0-.687-.615,5.537,5.537,0,0,0-1.11-.507q-.666-.229-1.508-.494a14.255,14.255,0,0,1-1.6-.627,5.38,5.38,0,0,1-1.4-.929,4.326,4.326,0,0,1-.987-1.375,4.66,4.66,0,0,1-.376-1.966,4.834,4.834,0,0,1,.579-2.436,5.059,5.059,0,0,1,1.522-1.664A6.509,6.509,0,0,1,20.983.314a9.62,9.62,0,0,1,2.386-.3,8.868,8.868,0,0,1,2.957.531A7.626,7.626,0,0,1,28.967,2.11Z" transform="translate(16.076 0.012)" fill="#666"/>
      <path id="Path_30" data-name="Path 30" d="M38.462,13.675a6.16,6.16,0,0,1-1.483,2.171,6.86,6.86,0,0,1-2.328,1.411,9.335,9.335,0,0,1-6.066,0,6.63,6.63,0,0,1-2.293-1.411,6.148,6.148,0,0,1-1.445-2.171,7.5,7.5,0,0,1-.507-2.81V.228h4.1v10.3a4.754,4.754,0,0,0,.181,1.327,3.406,3.406,0,0,0,.555,1.122,2.6,2.6,0,0,0,.989.784,3.946,3.946,0,0,0,2.967,0,2.707,2.707,0,0,0,1-.784,3.154,3.154,0,0,0,.555-1.122,5.072,5.072,0,0,0,.169-1.327V.228h4.125V10.865a7.349,7.349,0,0,1-.519,2.81" transform="translate(24.584 0.23)" fill="#666"/>
      <path id="Path_31" data-name="Path 31" d="M44.293,3.75V17.305H40.166V3.75H35.344V.228H49.115V3.75Z" transform="translate(35.698 0.23)" fill="#666"/>
      <path id="Path_32" data-name="Path 32" d="M61.092,8.925a9.56,9.56,0,0,1-.7,3.7,8.459,8.459,0,0,1-1.942,2.87A8.658,8.658,0,0,1,55.5,17.342a10.368,10.368,0,0,1-3.717.651,10.249,10.249,0,0,1-3.7-.651A8.644,8.644,0,0,1,45.138,15.5a8.4,8.4,0,0,1-1.942-2.87,9.524,9.524,0,0,1-.7-3.7,9.41,9.41,0,0,1,.7-3.7,8.08,8.08,0,0,1,1.942-2.81A8.631,8.631,0,0,1,48.081.627,10.6,10.6,0,0,1,51.781,0,10.726,10.726,0,0,1,55.5.627a8.647,8.647,0,0,1,2.955,1.785,8.134,8.134,0,0,1,1.942,2.81,9.446,9.446,0,0,1,.7,3.7m-4.412,0a5.86,5.86,0,0,0-.364-2.074,4.943,4.943,0,0,0-1-1.652,4.612,4.612,0,0,0-1.542-1.085,4.89,4.89,0,0,0-1.992-.4,4.8,4.8,0,0,0-1.976.4A4.665,4.665,0,0,0,47.259,6.85a6.04,6.04,0,0,0-.348,2.074,6.1,6.1,0,0,0,.36,2.135,5.056,5.056,0,0,0,1,1.676,4.559,4.559,0,0,0,1.534,1.1,5.114,5.114,0,0,0,3.956,0,4.672,4.672,0,0,0,1.542-1.1,4.95,4.95,0,0,0,1.013-1.676,6.1,6.1,0,0,0,.364-2.135" transform="translate(42.921 0)" fill="#666"/>
      <path id="Path_33" data-name="Path 33" d="M71.064,8.925a9.523,9.523,0,0,1-.7,3.7,8.464,8.464,0,0,1-1.944,2.87,8.649,8.649,0,0,1-2.953,1.845,10.379,10.379,0,0,1-3.719.651,10.257,10.257,0,0,1-3.7-.651A8.674,8.674,0,0,1,55.11,15.5a8.435,8.435,0,0,1-1.944-2.87,9.523,9.523,0,0,1-.7-3.7,9.41,9.41,0,0,1,.7-3.7,8.111,8.111,0,0,1,1.944-2.81A8.661,8.661,0,0,1,58.051.627,10.61,10.61,0,0,1,61.751,0,10.737,10.737,0,0,1,65.47.627a8.638,8.638,0,0,1,2.953,1.785,8.138,8.138,0,0,1,1.944,2.81,9.41,9.41,0,0,1,.7,3.7m-4.412,0A5.9,5.9,0,0,0,66.29,6.85a5.009,5.009,0,0,0-1-1.652,4.629,4.629,0,0,0-1.546-1.085,4.876,4.876,0,0,0-1.992-.4A4.687,4.687,0,0,0,57.231,6.85a6.041,6.041,0,0,0-.35,2.074,6.056,6.056,0,0,0,.364,2.135,5.048,5.048,0,0,0,1,1.676,4.587,4.587,0,0,0,1.536,1.1,5.109,5.109,0,0,0,3.954,0,4.631,4.631,0,0,0,1.542-1.1,4.959,4.959,0,0,0,1.017-1.676,6.147,6.147,0,0,0,.362-2.135" transform="translate(52.993 0)" fill="#666"/>
      <path id="Path_34" data-name="Path 34" d="M62.836,17.305V.228h4.149V13.711h6.609v3.594Z" transform="translate(63.466 0.231)" fill="#666"/>
      <path id="Path_35" data-name="Path 35" d="M1.91,14.852H1.2V17.4H.6V14.852H0v-.494H.6v-.633a1.847,1.847,0,0,1,.06-.5.975.975,0,0,1,.2-.394.913.913,0,0,1,.352-.263,1.277,1.277,0,0,1,.523-.1,1.4,1.4,0,0,1,.378.044l-.07.521a1.1,1.1,0,0,0-.141-.032.938.938,0,0,0-.161-.014.559.559,0,0,0-.279.06.441.441,0,0,0-.163.165.664.664,0,0,0-.076.233,1.733,1.733,0,0,0-.02.273v.633H1.91Z" transform="translate(38.045 12.599)" fill="#666"/>
      <path id="Path_36" data-name="Path 36" d="M4.466,14.968a1.648,1.648,0,0,1-.123.645,1.54,1.54,0,0,1-.87.844,1.825,1.825,0,0,1-1.294,0,1.515,1.515,0,0,1-.519-.334,1.587,1.587,0,0,1-.344-.511,1.648,1.648,0,0,1-.123-.645,1.627,1.627,0,0,1,.123-.645,1.534,1.534,0,0,1,.862-.834,1.825,1.825,0,0,1,1.294,0A1.578,1.578,0,0,1,4,13.82a1.531,1.531,0,0,1,.348.5,1.627,1.627,0,0,1,.123.645m-.627,0a1.307,1.307,0,0,0-.066-.416,1.077,1.077,0,0,0-.2-.348.94.94,0,0,0-.318-.239,1,1,0,0,0-.434-.09,1.014,1.014,0,0,0-.436.09.94.94,0,0,0-.318.239,1.116,1.116,0,0,0-.2.348,1.338,1.338,0,0,0,0,.832,1.126,1.126,0,0,0,.2.35.9.9,0,0,0,.318.243,1.014,1.014,0,0,0,.436.09,1,1,0,0,0,.434-.09.9.9,0,0,0,.318-.243,1.087,1.087,0,0,0,.2-.35,1.307,1.307,0,0,0,.066-.416" transform="translate(39.251 13.504)" fill="#666"/>
      <path id="Path_37" data-name="Path 37" d="M3.18,13.793c0-.127-.01-.241-.02-.34h.571c.008.078.014.167.02.265s.006.183.006.247h.02a1.039,1.039,0,0,1,.374-.432.982.982,0,0,1,.555-.163.889.889,0,0,1,.237.026l-.026.557a1.1,1.1,0,0,0-.273-.032.822.822,0,0,0-.38.08A.757.757,0,0,0,4,14.215a.967.967,0,0,0-.157.312,1.4,1.4,0,0,0-.05.37v1.6h-.6V14.107q0-.121-.006-.314" transform="translate(41.237 13.505)" fill="#666"/>
      <path id="Path_38" data-name="Path 38" d="M7.254,12.526c-.82,0-1.1.016-1.156.016-.09,0-.1-.008-.1-.109V11.7c0-.1.01-.109.1-.109.052,0,.336.018,1.156.018h5.483c.82,0,1.091-.018,1.158-.018.09,0,.1.008.1.109v.738c0,.1-.008.109-.1.109-.066,0-.338-.016-1.158-.016h-1.9c-.135.263-.283.527-.436.782V17.88c0,.838.018,1.258.018,1.313,0,.092-.01.1-.1.1H9.485c-.092,0-.1-.008-.1-.1,0-.064.018-.474.018-1.313V14.666a11.07,11.07,0,0,1-2.786,2.3.593.593,0,0,1-.2.09c-.064,0-.1-.054-.195-.209a1.849,1.849,0,0,0-.5-.557,9.128,9.128,0,0,0,4.026-3.761Zm3.928,1.357c.036-.036.06-.054.088-.054s.046.018.082.054a8.366,8.366,0,0,0,2.933,2.3,3.469,3.469,0,0,0-.456.629c-.08.145-.117.209-.173.209s-.1-.046-.217-.111a9.735,9.735,0,0,1-2.724-2.4c-.064-.08-.056-.109.036-.2Z" transform="translate(43.825 11.703)" fill="#fc8800"/>
      <path id="Path_39" data-name="Path 39" d="M13.193,18.155c.492-.052,1.011-.127,1.55-.219a3.435,3.435,0,0,0-.082.42l-.028.165a5.146,5.146,0,0,0,1.039-2.042,12.418,12.418,0,0,0,.3-2.322c-.539.008-.738.018-.786.018-.1,0-.107-.01-.107-.1v-.663c0-.092.008-.1.107-.1.048,0,.255.018.822.018,0-.237.008-.474.008-.73a8.78,8.78,0,0,0-.064-1.284c.328.008.593.028.911.064.092.008.139.044.139.1a.681.681,0,0,1-.056.217,3.96,3.96,0,0,0-.054.929c0,.247,0,.474-.008.7H17.4c.7,0,.939-.018.993-.018.09,0,.111.018.111.109-.02.31-.02.575-.02.866a27.778,27.778,0,0,1-.263,4.171,1.037,1.037,0,0,1-1.158,1c-.191,0-.346-.008-.5-.016-.211-.02-.211-.02-.237-.32a2.106,2.106,0,0,0-.181-.611,4.781,4.781,0,0,0,.756.072c.273,0,.428-.145.49-.573a25.644,25.644,0,0,0,.227-3.853h-.764a15.867,15.867,0,0,1-.338,2.613,5.787,5.787,0,0,1-1.347,2.6c-.09.09-.147.137-.191.137s-.092-.046-.173-.127a1.685,1.685,0,0,0-.583-.438,3.825,3.825,0,0,0,.289-.281.643.643,0,0,1-.173.036c-.965.191-2.149.364-3.18.472a1.669,1.669,0,0,0-.336.064.334.334,0,0,1-.155.054c-.054,0-.1-.054-.127-.155-.056-.235-.111-.527-.155-.8a8.345,8.345,0,0,0,.955-.01c.318-.018.665-.036,1.029-.072v-.529h-.537c-.792,0-1.057.018-1.11.018-.092,0-.1-.01-.1-.092V17.1c0-.09.01-.1.1-.1.052,0,.318.018,1.11.018h.537v-.392h-.364c-.774,0-1.037.018-1.093.018-.1,0-.109-.008-.109-.1,0-.064.018-.273.018-.756v-.975c0-.49-.018-.7-.018-.746,0-.092.01-.1.109-.1.056,0,.32.018,1.093.018h.364v-.4H11.7c-.82,0-1.1.02-1.156.02-.092,0-.1-.01-.1-.1v-.539c0-.09.008-.1.1-.1.054,0,.336.016,1.156.016h.673v-.408c-.39.036-.784.072-1.174.09-.255.018-.265.01-.338-.2a1.8,1.8,0,0,0-.283-.492,17.421,17.421,0,0,0,3.226-.346,3.115,3.115,0,0,0,.5-.155,4.059,4.059,0,0,1,.521.5.225.225,0,0,1,.072.165c0,.054-.072.09-.193.09a2.557,2.557,0,0,0-.408.064c-.366.072-.73.137-1.1.183v.509h.529c.81,0,1.093-.016,1.148-.016.082,0,.09.008.09.1V13.5c0,.09.01.1-.072.1-.054,0-.356-.02-1.166-.02h-.529v.4h.392c.764,0,1.029-.018,1.093-.018.09,0,.1.008.1.1,0,.044-.02.255-.02.746v.975c0,.482.02.7.02.756,0,.092-.01.1-.1.1-.064,0-.33-.018-1.093-.018h-.392v.392h.338c.784,0,1.057-.018,1.112-.018.09,0,.1.01.1.1v.545c0,.082-.01.092-.1.092-.054,0-.328-.018-1.112-.018h-.338Zm-.82-3.6h-.756v.474h.756Zm0,1h-.756v.482h.756Zm.82-.529h.794v-.474h-.794Zm.794.529h-.794v.482h.794Z" transform="translate(48.538 11.429)" fill="#fc8800"/>
      <path id="Path_40" data-name="Path 40" d="M17.921,19.393c-.884,0-1.184.02-1.24.02-.1,0-.109-.01-.109-.111v-.619c0-.09.01-.1.109-.1.056,0,.356.018,1.24.018h1.522V17.82h-.484c-.838,0-1.12.016-1.176.016-.09,0-.1-.008-.1-.1v-.6c0-.092.008-.1.1-.1.056,0,.338.018,1.176.018h.484V16.36H17.957a7.236,7.236,0,0,1-.619.913c-.082.109-.129.155-.165.155s-.074-.046-.137-.129a1.935,1.935,0,0,0-.464-.446l-.082.575a6.637,6.637,0,0,1-.647,1.986c-.072.119-.109.173-.155.173s-.082-.038-.145-.111a2.333,2.333,0,0,0-.593-.547,4.748,4.748,0,0,0,.665-1.785,12.638,12.638,0,0,0,.137-2.068c0-.838-.018-1.2-.018-1.256,0-.092.01-.1.1-.1.054,0,.354.018,1.21.018h.675a5.939,5.939,0,0,0-.41-.81h-.255c-.874,0-1.166.018-1.22.018-.1,0-.109-.01-.109-.1v-.6c0-.1.008-.111.109-.111.054,0,.346.02,1.22.02h1.8v-.082a3.559,3.559,0,0,0-.064-.792c.338,0,.649.016.949.044.09.01.145.046.145.092a.4.4,0,0,1-.054.171,1.26,1.26,0,0,0-.046.474v.092H21.6c.874,0,1.176-.02,1.23-.02.09,0,.1.01.1.111v.6c0,.09-.01.1-.1.1-.054,0-.366-.018-1.24-.018h-.155a.571.571,0,0,0-.09.155,5.63,5.63,0,0,1-.366.655h.959c.854,0,1.146-.018,1.2-.018.082,0,.092.008.092.1v.6c0,.092-.01.1-.092.1-.054,0-.354-.018-1.21-.018H16.665l.008.573a14.906,14.906,0,0,1-.1,1.713,4.388,4.388,0,0,0,1.047-1.612,1.835,1.835,0,0,0,.119-.472,5.673,5.673,0,0,1,.792.191c.111.036.119.072.119.109s-.028.072-.062.109a1.126,1.126,0,0,0-.173.328l-.056.137h1.085v-.1a3.435,3.435,0,0,0-.074-.8c.338.01.639.028.947.054.092.01.147.046.147.09a.454.454,0,0,1-.054.183,1.43,1.43,0,0,0-.044.474v.1h.973c.848,0,1.13-.016,1.186-.016.09,0,.1.008.1.1v.619c0,.092-.01.1-.1.1-.056,0-.338-.018-1.186-.018h-.973v.693h.645c.838,0,1.12-.018,1.176-.018.09,0,.1.008.1.1v.6c0,.09-.01.1-.1.1-.056,0-.338-.016-1.176-.016h-.645V18.6h1.483c.882,0,1.194-.018,1.248-.018.09,0,.1.01.1.1V19.3c0,.1-.01.111-.1.111-.054,0-.366-.02-1.248-.02Zm.392-6.466a7.834,7.834,0,0,1,.354.81h1.367a6.787,6.787,0,0,0,.392-.81Z" transform="translate(53.145 11.392)" fill="#fc8800"/>
      <path id="Path_41" data-name="Path 41" d="M24.038,19.4c-.872,0-1.176.018-1.228.018-.1,0-.111-.008-.111-.109v-.655l-.137.046c-.645.217-1.266.39-1.984.563a2.1,2.1,0,0,0-.376.119.236.236,0,0,1-.145.054.144.144,0,0,1-.147-.109c-.088-.255-.155-.5-.227-.784a7.044,7.044,0,0,0,.911-.119l.41-.08V15.82h-.227c-.627,0-.82.01-.874.01-.09,0-.1-.01-.1-.1v-.591c0-.1.01-.111.1-.111.054,0,.247.018.874.018h.227v-.71c-.436,0-.575.016-.627.016-.092,0-.1-.008-.1-.109v-.4l-.193.173a.367.367,0,0,1-.181.109c-.056,0-.09-.064-.129-.2a2.087,2.087,0,0,0-.227-.583,4.408,4.408,0,0,0,1.292-1.55,1.591,1.591,0,0,0,.183-.492,7.571,7.571,0,0,1,.848.119c.09.018.135.054.135.119a.169.169,0,0,1-.088.137c-.018.01-.038.018-.046.036a4.175,4.175,0,0,0,1.14,1.176v-.072c0-.675-.02-1-.02-1.057,0-.09.01-.1.1-.1.064,0,.3.018.864.018H24.6c.547,0,.7-.018.756-.018.1,0,.109.01.109.1V12.3c0,.1-.01.109-.109.109-.046,0-.173-.01-.519-.018v.555c.237,0,.346-.018.382-.018.09,0,.1.01.1.1,0,.054-.018.2-.018.565v.09a5.269,5.269,0,0,0,.756-1.713,3.1,3.1,0,0,0,.072-.583,7.809,7.809,0,0,1,.8.173c.072.028.127.072.127.137s-.044.1-.072.147a1.072,1.072,0,0,0-.119.273l-.137.436h.4c.583,0,.756-.018.812-.018.092,0,.1.01.1.1v.637c0,.092-.006.1-.1.1-.056,0-.229-.018-.812-.018h-.71a5.3,5.3,0,0,1-.346.673c-.072.119-.1.175-.145.175s-.1-.056-.2-.147a1.84,1.84,0,0,0-.428-.291v.227c0,.356.018.511.018.575,0,.09-.01.1-.1.1-.036,0-.145-.01-.382-.02v.611c.39,0,.49-.018.545-.018.092,0,.1.01.1.1v.511c0,.09-.008.1-.1.1-.054,0-.155-.018-.563-.018h-.858c-.563,0-.8.018-.864.018-.09,0-.1-.01-.1-.1,0-.046.02-.374.02-1.047V12.941a2.175,2.175,0,0,0-.3.42c-.064.127-.1.191-.155.191s-.1-.046-.2-.137a4.92,4.92,0,0,1-.884-1.047,6.929,6.929,0,0,1-.939,1.22c.111.008.275.008.549.008h.645c.511,0,.657-.018.71-.018.082,0,.092.01.092.1v.565c0,.1-.01.109-.092.109-.052,0-.189-.016-.635-.016v.71c.591,0,.774-.018.828-.018.09,0,.1.008.1.111v.591c0,.09-.01.1-.1.1-.054,0-.237-.01-.828-.01v2.342c.346-.09.7-.191,1.091-.32a4.2,4.2,0,0,0-.036.492c-.01.173-.01.227-.072.273.056,0,.191.01.5.018V17.269c0-.5-.018-.72-.018-.784,0-.09.008-.1.1-.1.056,0,.328.018,1.14.018h1.839c.81,0,1.083-.018,1.148-.018.09,0,.1.01.1.1,0,.054-.018.283-.018.774v1.367c.255-.008.374-.018.41-.018.09,0,.1.01.1.1v.6c0,.1-.01.109-.1.109-.054,0-.348-.018-1.23-.018Zm-3.725-3.188c.117-.046.127-.046.165.046a7.2,7.2,0,0,1,.336,1.365c.01.1.01.129-.119.175l-.356.137c-.127.044-.145.054-.155-.056a6.7,6.7,0,0,0-.328-1.365c-.034-.092-.028-.119.09-.165Zm1.914.31a2.239,2.239,0,0,0,.052-.372,3.634,3.634,0,0,1,.593.209c.072.026.092.054.092.09a.15.15,0,0,1-.054.109.4.4,0,0,0-.111.2,7.472,7.472,0,0,1-.283.812c-.044.109-.062.153-.109.153a.636.636,0,0,1-.163-.064,1.2,1.2,0,0,0-.338-.088,8.409,8.409,0,0,0,.32-1.049m1.956-4.135h-.5v.555h.5Zm.466,1.13h-.965v.555h.965Zm-.466,1.128h-.5v.611h.5Zm.338,2.507h-.446v1.475h.446Zm1.122,0h-.456v1.475h.456ZM27.1,14.672c.474,0,.6-.018.655-.018.1,0,.111.01.111.1v.665c0,.09-.008.1-.111.1-.054,0-.181-.018-.655-.018h-.565c-.464,0-.593.018-.647.018-.09,0-.1-.01-.1-.1v-.665c0-.09.01-.1.1-.1.054,0,.183.018.647.018Zm-.792,3.954h.456V17.15h-.456Z" transform="translate(57.789 11.414)" fill="#fc8800"/>
      <path id="Path_42" data-name="Path 42" d="M27.227,14.823c-.882,0-1.174.018-1.23.018-.1,0-.109-.008-.109-.1v-.665c0-.09.008-.1.109-.1.056,0,.348.02,1.23.02H29.8c.872,0,1.174-.02,1.228-.02.09,0,.1.01.1.1v.665c0,.092-.01.1-.1.1-.054,0-.356-.018-1.228-.018h-.776v1.212h1.112c.748,0,.993-.02,1.047-.02.1,0,.111.01.111.1v.665c0,.082-.01.092-.111.092-.054,0-.3-.02-1.047-.02H29.022v1.558a15,15,0,0,0,1.759.082c.519,0,1.166-.036,1.767-.082a2.573,2.573,0,0,0-.173.655c-.038.283-.044.283-.328.312-.348.018-.712.026-1.075.026-3.26-.008-3.9-.5-4.619-1.584a5.156,5.156,0,0,1-1.112,1.558c-.09.1-.145.155-.2.155s-.09-.054-.183-.173a1.951,1.951,0,0,0-.529-.474,4.3,4.3,0,0,0,1.638-2.878,4.2,4.2,0,0,0,.056-.583c.3.044.6.109.864.173.129.028.173.064.173.127a.285.285,0,0,1-.08.175.738.738,0,0,0-.119.281c-.046.255-.1.492-.163.72a2.271,2.271,0,0,0,1.365,1.3V14.823Zm3.809-2.587c.846,0,1.146-.018,1.2-.018.092,0,.1.008.1.09,0,.064-.016.219-.016.472v.394c0,.81.016.947.016,1,0,.09-.006.1-.1.1h-.746c-.092,0-.1-.01-.1-.1v-1.1H25.625v1.1c0,.09-.008.1-.111.1h-.736c-.092,0-.1-.01-.1-.1,0-.062.018-.191.018-1v-.312c0-.336-.018-.49-.018-.555,0-.082.008-.09.1-.09.062,0,.354.018,1.21.018h1.95v-.082a3.7,3.7,0,0,0-.064-.866c.338,0,.665.02.975.046.082.01.137.036.137.092a.421.421,0,0,1-.054.173,1.631,1.631,0,0,0-.036.547v.09Z" transform="translate(62.62 11.4)" fill="#fc8800"/>
      <path id="Path_43" data-name="Path 43" d="M30.67,19.047c-.882,0-1.176.018-1.23.018-.09,0-.1-.008-.1-.1v-.756c0-.09.01-.1.1-.1.054,0,.348.016,1.23.016h1.622V15.067H30.105c-.82,0-1.1.018-1.156.018-.092,0-.1-.01-.1-.1v-.748c0-.1.008-.109.1-.109.054,0,.336.018,1.156.018h2.187V12.481a5.117,5.117,0,0,0-.072-1.112c.334.01.728.026,1.037.062.082.01.135.046.135.1a.436.436,0,0,1-.044.183,2.3,2.3,0,0,0-.054.712v1.721h2.3c.82,0,1.1-.018,1.158-.018.09,0,.1.01.1.109v.748c0,.09-.01.1-.1.1-.054,0-.338-.018-1.158-.018h-2.3v3.059h1.721c.876,0,1.176-.016,1.23-.016.09,0,.1.008.1.1v.756c0,.092-.01.1-.1.1-.054,0-.354-.018-1.23-.018Z" transform="translate(67.183 11.483)" fill="#fc8800"/>
    </g>
  </g>
</svg>
