<svg xmlns="http://www.w3.org/2000/svg" xmlns:xlink="http://www.w3.org/1999/xlink" width="23.081" height="5.56" viewBox="0 0 23.081 5.56">
  <defs>
    <clipPath id="clip-path">
      <rect id="Rectangle_74" data-name="Rectangle 74" width="23.081" height="5.56" fill="#666"/>
    </clipPath>
  </defs>
  <g id="Group_51" data-name="Group 51" transform="translate(0 0)">
    <g id="Group_51-2" data-name="Group 51" transform="translate(0 0)" clip-path="url(#clip-path)">
      <path id="Path_49" data-name="Path 49" d="M2.781,0A2.78,2.78,0,1,0,5.561,2.781,2.781,2.781,0,0,0,2.781,0" transform="translate(0 -0.001)" fill="#666"/>
      <path id="Path_50" data-name="Path 50" d="M16.415,0A2.78,2.78,0,1,0,19.2,2.781,2.781,2.781,0,0,0,16.415,0" transform="translate(3.886 -0.001)" fill="#666"/>
      <path id="Path_51" data-name="Path 51" d="M9.6,0a2.78,2.78,0,1,0,2.781,2.781A2.781,2.781,0,0,0,9.6,0" transform="translate(1.943 -0.001)" fill="#666"/>
    </g>
  </g>
</svg>
