<svg xmlns="http://www.w3.org/2000/svg" xmlns:xlink="http://www.w3.org/1999/xlink" width="19.741" height="23.009" viewBox="0 0 19.741 23.009">
  <defs>
    <clipPath id="clip-path">
      <rect id="Rectangle_223" data-name="Rectangle 223" width="19.741" height="23.009" fill="#666"/>
    </clipPath>
  </defs>
  <g id="Group_302" data-name="Group 302" transform="translate(0 0)">
    <g id="Group_174" data-name="Group 174" transform="translate(0 0)" clip-path="url(#clip-path)">
      <path id="Path_100" data-name="Path 100" d="M19.741,1.209V21.8a1.209,1.209,0,0,1-2.417,0V1.209a1.209,1.209,0,0,1,2.417,0M9.87,0A1.209,1.209,0,0,0,8.662,1.209V4.272a1.209,1.209,0,0,0,2.417,0V1.209A1.209,1.209,0,0,0,9.87,0m0,8.765A1.209,1.209,0,0,0,8.662,9.973v3.063a1.209,1.209,0,0,0,2.417,0V9.973A1.209,1.209,0,0,0,9.87,8.765m0,8.763a1.209,1.209,0,0,0-1.209,1.209V21.8a1.209,1.209,0,0,0,2.417,0V18.736A1.209,1.209,0,0,0,9.87,17.528M1.209,0A1.209,1.209,0,0,0,0,1.209V21.8a1.209,1.209,0,0,0,2.417,0V1.209A1.209,1.209,0,0,0,1.209,0" transform="translate(0 0)" fill="#666"/>
    </g>
  </g>
</svg>
