<svg xmlns="http://www.w3.org/2000/svg" viewBox="0 0 15.06 14.28"><defs><style>.cls-1{fill:#fc8800;}</style></defs><g id="Layer_2" data-name="Layer 2"><g id="レイヤー_1" data-name="レイヤー 1"><path class="cls-1" d="M1.59,0A1.59,1.59,0,1,0,3.18,1.59,1.59,1.59,0,0,0,1.59,0Z"/><path class="cls-1" d="M6.42,2.59h7.64a1,1,0,1,0,0-2H6.42a1,1,0,0,0,0,2Z"/><path class="cls-1" d="M1.59,5.55A1.59,1.59,0,1,0,3.18,7.14,1.59,1.59,0,0,0,1.59,5.55Z"/><path class="cls-1" d="M14.06,6.14H6.42a1,1,0,1,0,0,2h7.64a1,1,0,0,0,0-2Z"/><path class="cls-1" d="M1.59,11.11a1.59,1.59,0,1,0,1.59,1.58A1.59,1.59,0,0,0,1.59,11.11Z"/><path class="cls-1" d="M14.06,11.69H6.42a1,1,0,0,0,0,2h7.64a1,1,0,0,0,0-2Z"/></g></g></svg>