<svg xmlns="http://www.w3.org/2000/svg" viewBox="0 0 13.21 20.7"><defs><style>.cls-1{fill:#fc8800;}</style></defs><g id="Layer_2" data-name="Layer 2"><g id="レイヤー_1" data-name="レイヤー 1"><path class="cls-1" d="M6.49,18a1.87,1.87,0,0,0,1.2-.75c.21-.28,5.22-6.22,5.22-10.79a6.42,6.42,0,0,0-12.84,0C.07,11.17,5,16.78,5.3,17.13S6,18,6.49,18ZM5.92,2a4.42,4.42,0,0,1,5,4.38c0,3.38-2.53,7.25-4.21,9.31a.27.27,0,0,1-.43,0c-1.61-2-4-5.47-4.18-8.82A4.49,4.49,0,0,1,5.92,2Z"/><path class="cls-1" d="M8.5,6.82A1.92,1.92,0,1,0,6.59,8.73,1.91,1.91,0,0,0,8.5,6.82Z"/><path class="cls-1" d="M11.43,15.39c-.5-.22-1.12-.28-1.37.22s-.05.86.45,1.09.75.54.61.81c-.34.58-2,1.24-4.52,1.24S2.46,18,2.08,17.51c-.15-.24-.05-.46.24-.66a.88.88,0,0,0,.37-1.18.9.9,0,0,0-1.22-.13C.25,16.18,0,17,0,17.5c0,2.05,3.32,3.2,6.6,3.2s6.61-1.15,6.61-3.2C13.21,16.89,13,16.05,11.43,15.39Z"/></g></g></svg>