<svg xmlns="http://www.w3.org/2000/svg" viewBox="0 0 18.33 18.62"><defs><style>.cls-1{fill:#fc8800;}</style></defs><g id="Layer_2" data-name="Layer 2"><g id="レイヤー_1" data-name="レイヤー 1"><path class="cls-1" d="M16.26,12.18V6.44a.36.36,0,0,1,.22-.33A3.2,3.2,0,1,0,12.16,2a.35.35,0,0,1-.33.24H6.51A.37.37,0,0,1,6.17,2a3.2,3.2,0,1,0-4.3,4.11.36.36,0,0,1,.23.33v5.72a.38.38,0,0,1-.23.34,3.2,3.2,0,1,0,4.29,4.13.36.36,0,0,1,.33-.23h5.35a.38.38,0,0,1,.34.23,3.2,3.2,0,1,0,4.3-4.13A.36.36,0,0,1,16.26,12.18Zm-4.43,2.23H6.5a.39.39,0,0,1-.35-.24,3.2,3.2,0,0,0-1.8-1.74.39.39,0,0,1-.25-.36V6.55a.39.39,0,0,1,.25-.36,3.21,3.21,0,0,0,1.79-1.7.37.37,0,0,1,.35-.24h5.35a.37.37,0,0,1,.35.24A3.2,3.2,0,0,0,14,6.2a.4.4,0,0,1,.26.36v5.5a.4.4,0,0,1-.26.36,3.2,3.2,0,0,0-1.82,1.75A.38.38,0,0,1,11.83,14.41ZM15.12,2a1.21,1.21,0,1,1-1.21,1.21A1.21,1.21,0,0,1,15.12,2ZM3.21,2A1.21,1.21,0,1,1,2,3.21,1.21,1.21,0,0,1,3.21,2Zm0,14.62a1.21,1.21,0,1,1,1.21-1.21A1.21,1.21,0,0,1,3.21,16.62Zm11.91,0a1.21,1.21,0,1,1,1.21-1.21A1.21,1.21,0,0,1,15.12,16.62Z"/></g></g></svg>