<svg xmlns="http://www.w3.org/2000/svg" viewBox="0 0 22 22.42"><defs><style>.cls-1{fill:#fc8800;}</style></defs><g id="Layer_2" data-name="Layer 2"><g id="レイヤー_1" data-name="レイヤー 1"><path class="cls-1" d="M19.92,4.28H16.47V1.53A1.52,1.52,0,0,0,14.94,0H7.14A1.53,1.53,0,0,0,5.61,1.53V4.28H2.08A2.08,2.08,0,0,0,0,6.36V16.54a2.08,2.08,0,0,0,2.08,2.08H5.61V20.3a2.12,2.12,0,0,0,2.12,2.12h6.62a2.12,2.12,0,0,0,2.12-2.12V18.62h3.45A2.08,2.08,0,0,0,22,16.54V6.36A2.08,2.08,0,0,0,19.92,4.28ZM7.61,2h6.86V4.28H7.61Zm6.74,18.42H7.73a.12.12,0,0,1-.12-.12V13.41h6.86V20.3A.12.12,0,0,1,14.35,20.42ZM20,16.54a.08.08,0,0,1-.08.08H16.47V13.41h1.11a1,1,0,0,0,0-2H4.4a1,1,0,0,0,0,2H5.61v3.21H2.08A.07.07,0,0,1,2,16.54V6.36a.08.08,0,0,1,.08-.08H19.92a.09.09,0,0,1,.08.08Z"/></g></g></svg>