<svg xmlns="http://www.w3.org/2000/svg" viewBox="0 0 19.15 24.28"><defs><style>.cls-1{fill:#fc8800;}</style></defs><g id="Layer_2" data-name="Layer 2"><g id="レイヤー_1" data-name="レイヤー 1"><path class="cls-1" d="M16.55,24.28H2.61A2.61,2.61,0,0,1,0,21.67V2.61A2.61,2.61,0,0,1,2.61,0H16.55a2.61,2.61,0,0,1,2.6,2.61V21.67A2.61,2.61,0,0,1,16.55,24.28ZM2.75,2A.76.76,0,0,0,2,2.75V21.53a.76.76,0,0,0,.75.75H16.4a.76.76,0,0,0,.75-.76V2.75A.75.75,0,0,0,16.4,2Z"/><circle class="cls-1" cx="5.61" cy="18.18" r="1.16"/><circle class="cls-1" cx="9.68" cy="18.18" r="1.16"/><circle class="cls-1" cx="13.76" cy="18.18" r="1.16"/><circle class="cls-1" cx="5.61" cy="14.1" r="1.16"/><circle class="cls-1" cx="9.68" cy="14.1" r="1.16"/><circle class="cls-1" cx="13.76" cy="14.1" r="1.16"/><circle class="cls-1" cx="5.61" cy="10.08" r="1.16"/><circle class="cls-1" cx="9.68" cy="10.08" r="1.16"/><circle class="cls-1" cx="13.76" cy="10.08" r="1.16"/><path class="cls-1" d="M13.76,7H5.87a1.42,1.42,0,1,1,0-2.83h7.89a1.42,1.42,0,0,1,0,2.83Z"/></g></g></svg>