<svg xmlns="http://www.w3.org/2000/svg" viewBox="0 0 18.4 19.13"><defs><style>.cls-1{fill:#fc8800;}</style></defs><g id="Layer_2" data-name="Layer 2"><g id="レイヤー_1" data-name="レイヤー 1"><path class="cls-1" d="M14.07,5a5,5,0,1,0-5,5A5,5,0,0,0,14.07,5Zm-5,3.09A3.09,3.09,0,1,1,12.16,5,3.09,3.09,0,0,1,9.07,8.09ZM5.68,10.7a1,1,0,0,1-.32,1.37A8.25,8.25,0,0,0,2,18.21a1,1,0,0,1-1,.92H.91A1,1,0,0,1,0,18a10.25,10.25,0,0,1,4.3-7.66A1,1,0,0,1,5.68,10.7ZM18.39,18a1,1,0,0,1-.91,1.09H17.4a1,1,0,0,1-1-.92A8.2,8.2,0,0,0,13,12.07a1,1,0,1,1,1.07-1.69A10.22,10.22,0,0,1,18.39,18Z"/></g></g></svg>