<svg xmlns="http://www.w3.org/2000/svg" viewBox="0 0 16.33 19.04"><defs><style>.cls-1{fill:#fc8800;}</style></defs><g id="Layer_2" data-name="Layer 2"><g id="レイヤー_1" data-name="レイヤー 1"><path class="cls-1" d="M16.33,1V18a1,1,0,1,1-2,0V1a1,1,0,1,1,2,0ZM8.17,0a1,1,0,0,0-1,1V3.53a1,1,0,0,0,2,0V1A1,1,0,0,0,8.17,0Zm0,7.25a1,1,0,0,0-1,1v2.54a1,1,0,0,0,2,0V8.25A1,1,0,0,0,8.17,7.25Zm0,7.25a1,1,0,0,0-1,1V18a1,1,0,0,0,2,0V15.5A1,1,0,0,0,8.17,14.5ZM1,0A1,1,0,0,0,0,1V18a1,1,0,0,0,2,0V1A1,1,0,0,0,1,0Z"/></g></g></svg>