<svg xmlns="http://www.w3.org/2000/svg" viewBox="0 0 23.42 23.69"><defs><style>.cls-1{fill:#fc8800;}</style></defs><g id="Layer_2" data-name="Layer 2"><g id="レイヤー_1" data-name="レイヤー 1"><path class="cls-1" d="M11.8,15.7a3.82,3.82,0,1,1,3.82-3.82A3.82,3.82,0,0,1,11.8,15.7Zm0-5.64a1.82,1.82,0,1,0,1.82,1.82A1.82,1.82,0,0,0,11.8,10.06Zm8.52-1.28a3.07,3.07,0,0,0-1.1.21L14.74,4a3.13,3.13,0,0,0,.16-.93,3.1,3.1,0,1,0-6.19,0A2.83,2.83,0,0,0,8.85,4L4.21,9A3,3,0,0,0,3.1,8.78,3.1,3.1,0,1,0,3.1,15a3.39,3.39,0,0,0,.64-.06l5,5a2.76,2.76,0,0,0-.07.65,3.1,3.1,0,0,0,6.19,0,3,3,0,0,0-.12-.8l4.9-4.89a3.39,3.39,0,0,0,.64.06,3.1,3.1,0,1,0,0-6.19ZM5.74,10.29,10,5.63a3.1,3.1,0,0,0,1.77.56,3.06,3.06,0,0,0,1.72-.52l4.16,4.61a3.07,3.07,0,0,0,.25,3.55l-4.29,4.29a3,3,0,0,0-3.78.08L5.48,13.83a3,3,0,0,0,.26-3.54ZM11.8,2a1.1,1.1,0,1,1-1.09,1.1A1.1,1.1,0,0,1,11.8,2ZM2,11.88A1.1,1.1,0,1,1,3.1,13,1.1,1.1,0,0,1,2,11.88Zm9.8,9.81a1.1,1.1,0,1,1,1.1-1.09A1.09,1.09,0,0,1,11.8,21.69ZM20.32,13a1.1,1.1,0,1,1,1.1-1.09A1.09,1.09,0,0,1,20.32,13Z"/></g></g></svg>