<svg xmlns="http://www.w3.org/2000/svg" viewBox="0 0 17.37 21.03"><defs><style>.cls-1{fill:#fc8800;}</style></defs><g id="Layer_2" data-name="Layer 2"><g id="レイヤー_1" data-name="レイヤー 1"><path class="cls-1" d="M14.57,0H2.81A2.81,2.81,0,0,0,0,2.81V18.23A2.81,2.81,0,0,0,2.81,21H14.57a2.8,2.8,0,0,0,2.8-2.8V2.81A2.8,2.8,0,0,0,14.57,0Zm.67,18a.87.87,0,0,1-.87.87H3A.87.87,0,0,1,2.14,18V3A.87.87,0,0,1,3,2.14H14.37a.87.87,0,0,1,.87.87ZM4.16,5.66A1.52,1.52,0,1,1,5.68,7.17,1.52,1.52,0,0,1,4.16,5.66Zm9.94,6.48a1.07,1.07,0,0,1-1.51,1.51l-2.05-2a.45.45,0,0,0-.66,0L5.6,16.44a1.05,1.05,0,0,1-.8.36,1.09,1.09,0,0,1-.71-.27A1.06,1.06,0,0,1,4,15l.89-1a.51.51,0,0,0,0-.68L3.56,12a1.07,1.07,0,0,1,1.51-1.51l1.22,1.22a.46.46,0,0,0,.66,0L9.36,9a1.06,1.06,0,0,1,.77-.36,1,1,0,0,1,.78.31Z"/></g></g></svg>