<svg xmlns="http://www.w3.org/2000/svg" xmlns:xlink="http://www.w3.org/1999/xlink" width="21.73" height="31.329" viewBox="0 0 21.73 31.329">
  <defs>
    <clipPath id="clip-path">
      <rect id="Rectangle_370" data-name="Rectangle 370" width="21.73" height="31.329" fill="none"/>
    </clipPath>
  </defs>
  <g id="Group_281" data-name="Group 281" clip-path="url(#clip-path)">
    <path id="Path_127" data-name="Path 127" d="M21.73,10.866a10.865,10.865,0,1,0-21.73,0c0,10.068,8.782,18.2,10.864,20.465C12.948,29.14,21.73,21.186,21.73,10.866" transform="translate(0 -0.001)" fill="#fc8800"/>
    <path id="Path_128" data-name="Path 128" d="M15.139,8,10.31,4.085a.949.949,0,1,0-1.2,1.473l3.9,3.164L9.137,11.715a.949.949,0,0,0,1.16,1.5L15.122,9.49A.949.949,0,0,0,15.139,8" transform="translate(2.97 1.312)" fill="#fff"/>
    <path id="Path_129" data-name="Path 129" d="M8.613,17.83V4.605a.949.949,0,1,0-1.9,0V17.83C5.713,18,5,18.423,5,18.923,5,19.571,6.192,20.1,7.665,20.1s2.665-.525,2.665-1.173c0-.5-.714-.924-1.717-1.093" transform="translate(1.694 1.239)" fill="#fff"/>
  </g>
</svg>
