<svg xmlns="http://www.w3.org/2000/svg" viewBox="0 0 15.41 20.03"><defs><style>.cls-1{fill:#fc8800;}</style></defs><g id="Layer_2" data-name="Layer 2"><g id="レイヤー_1" data-name="レイヤー 1"><path class="cls-1" d="M14.13,0H1.28A1.28,1.28,0,0,0,0,1.28V9.33a1,1,0,0,0,2,0v-7A.33.33,0,0,1,2.33,2H13.08a.33.33,0,0,1,.33.33V17.7a.33.33,0,0,1-.33.33H10.52a1,1,0,0,0,0,2h3.56a1.32,1.32,0,0,0,1.33-1.32V1.28A1.28,1.28,0,0,0,14.13,0Z"/><path class="cls-1" d="M7.59,11,2,16.7V13.62a1,1,0,0,0-2,0v5.15A1.25,1.25,0,0,0,1.26,20H6.05a1,1,0,1,0,0-2H3.5L9,12.4A1,1,0,0,0,9,11,1,1,0,0,0,7.59,11Z"/></g></g></svg>