<svg xmlns="http://www.w3.org/2000/svg" viewBox="0 0 16.41 19.69"><defs><style>.cls-1{fill:#fc8800;}</style></defs><g id="Layer_2" data-name="Layer 2"><g id="レイヤー_1" data-name="レイヤー 1"><path class="cls-1" d="M13.55,5.46a1,1,0,0,0-1.06.94l-.64,10.88a.43.43,0,0,1-.42.41H4.55a.43.43,0,0,1-.42-.41L3.59,6.41a1,1,0,1,0-2,.1l.54,11a2.25,2.25,0,0,0,2.24,2.14H11.6a2.25,2.25,0,0,0,2.24-2.12l.65-11A1,1,0,0,0,13.55,5.46Z"/><path class="cls-1" d="M15.41,2.11H9.5c-.25,0-.29-.09-.29-.35V1a1,1,0,0,0-2,0v.76c0,.22,0,.35-.29.35H1a1,1,0,0,0,0,2H15.41a1,1,0,0,0,0-2Z"/></g></g></svg>