<svg xmlns="http://www.w3.org/2000/svg" viewBox="0 0 17.41 21.7"><defs><style>.cls-1{fill:#fc8800;}</style></defs><g id="Layer_2" data-name="Layer 2"><g id="レイヤー_1" data-name="レイヤー 1"><path class="cls-1" d="M16.3,21.7H1.11A1.11,1.11,0,0,1,0,20.59V1.78A1.11,1.11,0,0,1,1.11.67H3a1,1,0,1,1,0,2H2.11a.11.11,0,0,0-.11.1V19.34a.36.36,0,0,0,.35.36H15.06a.36.36,0,0,0,.35-.36V2.75a.08.08,0,0,0-.07-.08h-.83a1,1,0,0,1,0-2H16.3a1.11,1.11,0,0,1,1.11,1.11V20.59A1.11,1.11,0,0,1,16.3,21.7Z"/><path class="cls-1" d="M13,3.71,9.58.29A.93.93,0,0,0,9.25.08a.92.92,0,0,0-.76,0,1,1,0,0,0-.33.21L4.84,3.67A1,1,0,0,0,6.26,5.09L7.87,3.41v9.4a1,1,0,0,0,2,0V3.41l1.71,1.72a1,1,0,0,0,1.42,0A1,1,0,0,0,13,3.71Z"/></g></g></svg>