<svg xmlns="http://www.w3.org/2000/svg" viewBox="0 0 13.98 19.59"><defs><style>.cls-1{fill:#fc8800;}</style></defs><g id="Layer_2" data-name="Layer 2"><g id="レイヤー_1" data-name="レイヤー 1"><path class="cls-1" d="M7,15.25H7a1.19,1.19,0,0,0,.69-.41c1.61-1.56,4.6-5.95,4.6-9.54A5.3,5.3,0,1,0,1.7,5.3c0,3.75,3,7.86,4.57,9.51C6.46,15,6.71,15.25,7,15.25ZM7,2a3.29,3.29,0,0,1,3.34,3.3c0,2.25-1.57,5.72-2.85,7.45a.54.54,0,0,1-.87,0A15.77,15.77,0,0,1,3.7,5.57,3.45,3.45,0,0,1,7,2ZM7,7.15a1.4,1.4,0,1,1,1.39-1.4A1.4,1.4,0,0,1,7,7.15Zm7,5v6.39a1,1,0,0,1-.49.86,1,1,0,0,1-.51.14.91.91,0,0,1-.48-.13l-2.21-1.21a.84.84,0,0,0-.88,0L7.52,19.44a1,1,0,0,1-1,0L4.58,18.27a.87.87,0,0,0-.88,0L1.48,19.46a1,1,0,0,1-1,0A1,1,0,0,1,0,18.59V12.2a1,1,0,0,1,.5-.87l.84-.49a1,1,0,1,1,1,1.73l-.35.2V16.9l1.17-.65V15.13a1,1,0,0,1,2,0v1.15l1.54,1a.58.58,0,0,0,.57,0l1.54-1v-.89a1,1,0,0,1,2,0v.86l1.16.64v-4.2l-.25-.19a1,1,0,1,1,1.21-1.59l.65.49A1,1,0,0,1,14,12.2Z"/></g></g></svg>