<svg xmlns="http://www.w3.org/2000/svg" viewBox="0 0 17.23 18.5"><defs><style>.cls-1{fill:#fc8800;}</style></defs><g id="Layer_2" data-name="Layer 2"><g id="レイヤー_1" data-name="レイヤー 1"><path class="cls-1" d="M1,5A1,1,0,0,1,0,4V1A1,1,0,0,1,2,1V4A1,1,0,0,1,1,5ZM17.23,4V1a1,1,0,0,0-2,0V4a1,1,0,0,0,2,0ZM13.42,4V1a1,1,0,0,0-2,0V4a1,1,0,0,0,2,0ZM9.61,4V1a1,1,0,1,0-2,0V4a1,1,0,0,0,2,0ZM5.81,4V1a1,1,0,0,0-2,0V4a1,1,0,0,0,2,0ZM2,17.5V14.32a1,1,0,0,0-2,0V17.5a1,1,0,0,0,2,0Zm15.23,0V14.32a1,1,0,0,0-2,0V17.5a1,1,0,0,0,2,0Zm-3.81,0V14.32a1,1,0,0,0-2,0V17.5a1,1,0,0,0,2,0Zm-3.81,0V14.32a1,1,0,0,0-2,0V17.5a1,1,0,0,0,2,0Zm-3.8,0V14.32a1,1,0,0,0-2,0V17.5a1,1,0,0,0,2,0Zm11-9.23L14.72,6.58A1,1,0,0,0,13.4,8.05H3.85A1,1,0,0,0,4,6.67a1,1,0,0,0-1.41-.16L.38,8.27a1,1,0,0,0,0,1.57L2.59,11.6a1.05,1.05,0,0,0,.62.21A1,1,0,0,0,4,11.44a1,1,0,0,0-.15-1.39H13.4a1,1,0,0,0,.7,1.7,1,1,0,0,0,.62-.22l2.13-1.69a1,1,0,0,0,0-1.57Z"/></g></g></svg>