<svg xmlns="http://www.w3.org/2000/svg" viewBox="0 0 22.61 20.09"><defs><style>.cls-1{fill:#fc8800;}</style></defs><g id="Layer_2" data-name="Layer 2"><g id="レイヤー_1" data-name="レイヤー 1"><path class="cls-1" d="M7.5,14.91a1,1,0,0,0-1,1v3.18a1,1,0,0,0,2,0V15.91A1,1,0,0,0,7.5,14.91Z"/><path class="cls-1" d="M3.69,14.91a1,1,0,0,0-1,1v3.18a1,1,0,0,0,2,0V15.91A1,1,0,0,0,3.69,14.91Z"/><path class="cls-1" d="M11.3,14.91a1,1,0,0,0-1,1v3.18a1,1,0,0,0,2,0V15.91A1,1,0,0,0,11.3,14.91Z"/><path class="cls-1" d="M18.92,14.91a1,1,0,0,0-1,1v3.18a1,1,0,1,0,2,0V15.91A1,1,0,0,0,18.92,14.91Z"/><path class="cls-1" d="M15.11,14.91a1,1,0,0,0-1,1v3.18a1,1,0,1,0,2,0V15.91A1,1,0,0,0,15.11,14.91Z"/><path class="cls-1" d="M14.4,8.7a.86.86,0,0,0-1.2.14A.84.84,0,0,0,13.27,10H9.36a.85.85,0,0,0,.13-1.19.87.87,0,0,0-1.21-.14l-1.9,1.51a.87.87,0,0,0,0,1.35L8.28,13a.85.85,0,0,0,1.21-.14.85.85,0,0,0-.13-1.19h3.91a.86.86,0,0,0,.6,1.46A.8.8,0,0,0,14.4,13l1.83-1.45a.87.87,0,0,0,0-1.35Z"/><path class="cls-1" d="M17.94.11a3.76,3.76,0,0,0-.79,7,1.23,1.23,0,0,1,.69,1.09v3.34a1,1,0,0,0,2,0V8.21a1.24,1.24,0,0,1,.68-1.09,3.73,3.73,0,0,0,2.09-3.35A3.77,3.77,0,0,0,17.94.11Zm.9,5.43a1.77,1.77,0,1,1,1.77-1.77A1.78,1.78,0,0,1,18.84,5.54Z"/><path class="cls-1" d="M7.54,3.77A3.78,3.78,0,0,0,2.86.11a3.76,3.76,0,0,0-.78,7,1.25,1.25,0,0,1,.69,1.09v3.34a1,1,0,0,0,2,0V8.21a1.22,1.22,0,0,1,.68-1.09A3.75,3.75,0,0,0,7.54,3.77ZM2,3.77A1.77,1.77,0,1,1,3.77,5.54,1.77,1.77,0,0,1,2,3.77Z"/></g></g></svg>