<svg xmlns="http://www.w3.org/2000/svg" viewBox="0 0 9.31 16.37"><defs><style>.cls-1{fill:#fc8800;}</style></defs><g id="Layer_2" data-name="Layer 2"><g id="レイヤー_1" data-name="レイヤー 1"><path class="cls-1" d="M8.31,5.65a1,1,0,0,1-.71-.3L5,2.78a.52.52,0,0,0-.73,0L1.72,5.35A1,1,0,0,1,.3,3.94L4,.29a1,1,0,0,1,1.42,0L9,3.94A1,1,0,0,1,9,5.35,1,1,0,0,1,8.31,5.65Zm-3,10.43L9,12.43A1,1,0,0,0,9,11a1,1,0,0,0-1.41,0L5,13.59a.52.52,0,0,1-.73,0L1.71,11A1,1,0,1,0,.29,12.43l3.65,3.65a1,1,0,0,0,.71.29A1,1,0,0,0,5.35,16.08Z"/></g></g></svg>