<svg xmlns="http://www.w3.org/2000/svg" viewBox="0 0 20.95 20.95"><defs><style>.cls-1{fill:#fc8800;}</style></defs><g id="Layer_2" data-name="Layer 2"><g id="レイヤー_1" data-name="レイヤー 1"><path class="cls-1" d="M10.48,21A10.48,10.48,0,1,1,21,10.48,10.49,10.49,0,0,1,10.48,21ZM10.48,2A8.48,8.48,0,1,0,19,10.48,8.48,8.48,0,0,0,10.48,2Z"/><path class="cls-1" d="M9.88,13.58a1,1,0,0,1-.7-1.71l1.35-1.3a.28.28,0,0,0,0-.4L9.11,8.8a1,1,0,0,1,0-1.41,1,1,0,0,1,1.42,0L12.8,9.66a1,1,0,0,1,0,1.42l-2.21,2.21A1,1,0,0,1,9.88,13.58Z"/></g></g></svg>