<svg xmlns="http://www.w3.org/2000/svg" xmlns:xlink="http://www.w3.org/1999/xlink" width="10.936" height="10.936" viewBox="0 0 10.936 10.936">
  <defs>
    <clipPath id="clip-path">
      <rect id="Rectangle_342" data-name="Rectangle 342" width="10.936" height="10.936" fill="none"/>
    </clipPath>
  </defs>
  <g id="Group_235" data-name="Group 235" transform="translate(0 0)">
    <g id="Group_234" data-name="Group 234" transform="translate(0 0)" clip-path="url(#clip-path)">
      <path id="Path_119" data-name="Path 119" d="M10.361,4.893H6.208a.166.166,0,0,1-.166-.166V.575a.575.575,0,0,0-1.149,0V4.727a.166.166,0,0,1-.165.166H.575a.575.575,0,0,0,0,1.149H4.728a.166.166,0,0,1,.165.166v4.153a.575.575,0,0,0,1.149,0V6.208a.166.166,0,0,1,.166-.166h4.153a.575.575,0,0,0,0-1.149" transform="translate(0 0)" fill="#fc8800"/>
    </g>
  </g>
</svg>
