<svg xmlns="http://www.w3.org/2000/svg" viewBox="0 0 18.59 20.58"><defs><style>.cls-1{fill:#fc8800;}</style></defs><g id="Layer_2" data-name="Layer 2"><g id="レイヤー_1" data-name="レイヤー 1"><path class="cls-1" d="M17.87,2.71,12.5,1.1A5.28,5.28,0,0,0,9.29,0,5.34,5.34,0,0,0,5,2.16L1.29,1A1,1,0,0,0,.4,1.2,1,1,0,0,0,0,2V17.91a1,1,0,0,0,.71,1l5.56,1.67a.92.92,0,0,0,.29,0,1,1,0,0,0,.29,0L11.76,19a1,1,0,0,1,.54,0l5,1.5a.92.92,0,0,0,.29,0,1,1,0,0,0,1-1V3.67A1,1,0,0,0,17.87,2.71ZM9.29,2a3.35,3.35,0,0,1,3.35,3.35A11.89,11.89,0,0,1,9.3,12.52,12,12,0,0,1,6,5.35,3.35,3.35,0,0,1,9.29,2Zm-4,16.16-3-.9a.41.41,0,0,1-.29-.4V3.9a.41.41,0,0,1,.53-.4L4.14,4A5.45,5.45,0,0,0,4,5.35a12.62,12.62,0,0,0,1.61,5.37V18A.19.19,0,0,1,5.31,18.16Zm5.28-.85-2.78.84A.19.19,0,0,1,7.56,18V13.58a5.82,5.82,0,0,0,1.23,1,1,1,0,0,0,.5.14,1,1,0,0,0,.48-.12,5.26,5.26,0,0,0,1.26-1v3.11A.62.62,0,0,1,10.59,17.31Zm6,.59a.26.26,0,0,1-.33.24l-2.79-.84a.62.62,0,0,1-.44-.59V10.78a12.35,12.35,0,0,0,1.61-5.43,5.38,5.38,0,0,0-.27-1.61l1.8.55a.58.58,0,0,1,.42.56ZM7.84,5.72A1.45,1.45,0,1,1,9.29,7.17,1.45,1.45,0,0,1,7.84,5.72Z"/></g></g></svg>