<svg xmlns="http://www.w3.org/2000/svg" viewBox="0 0 19.56 16.33"><defs><style>.cls-1{fill:#fc8800;}</style></defs><g id="Layer_2" data-name="Layer 2"><g id="レイヤー_1" data-name="レイヤー 1"><path class="cls-1" d="M17.36,3.2H15.5c-.3,0-.42-.15-.42-.56v-.7A1.94,1.94,0,0,0,13.14,0H7A2,2,0,0,0,5,1.94v.72a.51.51,0,0,1-.53.54H2.2A2.21,2.21,0,0,0,0,5.4v8.73a2.21,2.21,0,0,0,2.2,2.2H17.36a2.2,2.2,0,0,0,2.2-2.2V5.4A2.2,2.2,0,0,0,17.36,3.2Zm.2,10.32a.81.81,0,0,1-.81.81H2.81A.81.81,0,0,1,2,13.52V5.94a.74.74,0,0,1,.74-.74h2A2.12,2.12,0,0,0,7,3c0-.56.1-1,.79-1l4.37-.06c.69,0,.91.41.91,1A2.09,2.09,0,0,0,15.33,5.2h1.5a.74.74,0,0,1,.73.74Z"/><path class="cls-1" d="M10.08,4.9a4.17,4.17,0,1,0,4.17,4.16A4.17,4.17,0,0,0,10.08,4.9Zm0,6.33a2.17,2.17,0,1,1,2.17-2.17A2.17,2.17,0,0,1,10.08,11.23Z"/></g></g></svg>