<svg xmlns="http://www.w3.org/2000/svg" viewBox="0 0 17.93 19.49"><defs><style>.cls-1{fill:#fc8800;}</style></defs><g id="Layer_2" data-name="Layer 2"><g id="レイヤー_1" data-name="レイヤー 1"><path class="cls-1" d="M17.11,3,14.19.55A2.33,2.33,0,0,0,11,.78L2,10.94A5,5,0,0,0,.77,13.43h0L0,17.76a1.48,1.48,0,0,0,1.46,1.73A1.61,1.61,0,0,0,2,19.41L6.19,18a5,5,0,0,0,2.15-1.43l9-10.19a2.29,2.29,0,0,0,.57-1.7A2.25,2.25,0,0,0,17.11,3ZM15.85,5,7.47,14.48a.31.31,0,0,1-.45,0l-1-.85a1,1,0,0,0-1.31,1.51l1,.83a.84.84,0,0,1-.14.06L2.22,17.35a.17.17,0,0,1-.22-.2l.74-3.38a3.09,3.09,0,0,1,.72-1.5l9-10.17a.32.32,0,0,1,.44,0l2.93,2.49a.38.38,0,0,1,.11.22A.32.32,0,0,1,15.85,5Z"/></g></g></svg>