<svg xmlns="http://www.w3.org/2000/svg" xmlns:xlink="http://www.w3.org/1999/xlink" width="16.741" height="26.236" viewBox="0 0 16.741 26.236">
  <defs>
    <clipPath id="clip-path">
      <rect id="Rectangle_197" data-name="Rectangle 197" width="16.741" height="26.236" fill="#666"/>
    </clipPath>
  </defs>
  <g id="Group_160" data-name="Group 160" clip-path="url(#clip-path)">
    <path id="Path_93" data-name="Path 93" d="M8.2,22.767a2.346,2.346,0,0,0,1.522-.956c.274-.36,6.612-7.886,6.612-13.678a8.134,8.134,0,1,0-16.268,0C.07,14.16,6.323,21.265,6.7,21.715s.864,1.052,1.5,1.052M7.479,2.58A5.6,5.6,0,0,1,13.8,8.134c0,4.289-3.205,9.189-5.326,11.8a.351.351,0,0,1-.548,0C5.882,17.464,2.9,13,2.626,8.759A5.708,5.708,0,0,1,7.479,2.58" transform="translate(0.019 0)" fill="#666"/>
    <path id="Path_94" data-name="Path 94" d="M9.524,7.33A2.424,2.424,0,1,0,7.1,9.755,2.425,2.425,0,0,0,9.524,7.33" transform="translate(1.25 1.311)" fill="#666"/>
    <path id="Path_95" data-name="Path 95" d="M14.489,15.431c-.64-.276-1.419-.347-1.738.283s-.07,1.086.568,1.378c.577.264.956.681.779,1.027-.431.74-2.508,1.577-5.729,1.577s-5.247-.919-5.727-1.578c-.191-.294-.074-.584.3-.829a1.12,1.12,0,0,0,.466-1.5,1.15,1.15,0,0,0-1.547-.169A2.851,2.851,0,0,0,0,18.113c0,2.588,4.2,4.053,8.37,4.053s8.371-1.465,8.371-4.053c0-.781-.312-1.845-2.252-2.682" transform="translate(0 4.071)" fill="#666"/>
  </g>
</svg>
